<?xml version="1.0" standalone="no"?>
<!DOCTYPE svg PUBLIC "-//W3C//DTD SVG 20010904//EN"
 "http://www.w3.org/TR/2001/REC-SVG-20010904/DTD/svg10.dtd">
<svg version="1.0" xmlns="http://www.w3.org/2000/svg"
 width="2001.000000pt" height="2001.000000pt" viewBox="0 0 2001.000000 2001.000000"
 preserveAspectRatio="xMidYMid meet">
<metadata>
Created by potrace 1.11, written by Peter Selinger 2001-2013
</metadata>
<g transform="translate(0.000000,2001.000000) scale(0.100000,-0.100000)"
fill="#000000" stroke="none">
<path d="M9688 18875 c-1 -2 -68 -6 -148 -10 -144 -6 -185 -9 -310 -20 -125
-11 -175 -16 -200 -20 -14 -2 -54 -6 -90 -10 -36 -3 -123 -15 -195 -26 -71
-11 -147 -22 -167 -24 -21 -3 -100 -17 -175 -31 -178 -33 -175 -32 -258 -50
-38 -9 -80 -18 -93 -20 -88 -17 -488 -123 -623 -164 -646 -198 -1283 -472
-1819 -783 -140 -81 -154 -90 -175 -101 -11 -6 -46 -28 -78 -49 -31 -20 -59
-37 -62 -37 -23 0 -712 -484 -755 -530 -3 -3 -36 -30 -75 -60 -78 -61 -75 -59
-235 -195 -229 -196 -545 -499 -730 -701 -36 -39 -85 -93 -110 -120 -233 -253
-562 -680 -797 -1034 -81 -121 -333 -534 -333 -545 0 -2 -14 -28 -32 -57 -82
-139 -306 -598 -393 -808 -15 -36 -33 -78 -40 -95 -25 -55 -102 -258 -153
-401 -156 -436 -298 -970 -376 -1419 -3 -16 -8 -41 -10 -55 -3 -14 -8 -43 -11
-65 -3 -22 -10 -67 -15 -100 -5 -33 -12 -82 -15 -110 -3 -27 -7 -61 -10 -75
-5 -29 -13 -94 -30 -250 -9 -83 -20 -211 -31 -380 -17 -236 -9 -1003 11 -1200
2 -19 7 -73 10 -120 4 -47 8 -92 10 -100 2 -8 6 -51 9 -95 4 -44 9 -87 11 -95
2 -8 6 -37 10 -65 12 -101 16 -133 40 -275 13 -80 27 -163 31 -185 3 -22 7
-42 9 -45 2 -3 6 -26 10 -50 6 -44 56 -273 96 -440 158 -657 471 -1464 801
-2065 31 -55 70 -127 88 -160 203 -369 634 -991 896 -1295 12 -14 56 -65 97
-113 200 -235 566 -610 787 -807 159 -141 169 -150 260 -226 1132 -940 2465
-1584 3880 -1873 107 -22 215 -42 240 -46 24 -4 47 -8 50 -10 3 -1 25 -6 50
-9 25 -3 56 -8 70 -10 14 -3 61 -10 105 -16 44 -6 91 -13 105 -15 14 -2 45 -6
70 -9 25 -3 63 -7 85 -10 22 -3 69 -7 105 -11 36 -3 81 -8 100 -10 66 -7 301
-23 455 -31 102 -4 659 -4 745 1 36 2 117 6 180 10 63 3 126 8 140 10 14 2 64
6 112 10 49 3 96 8 105 9 10 2 52 7 93 11 41 4 83 9 92 10 9 2 43 6 75 10 32
3 65 8 73 10 8 2 38 6 65 10 59 7 322 52 380 65 22 5 54 11 72 14 139 25 500
113 683 166 58 17 134 40 170 50 109 32 410 135 525 181 17 7 35 13 40 15 34
9 382 157 550 234 166 76 562 282 703 365 9 6 40 23 67 40 194 114 471 295
681 445 112 81 339 254 354 270 3 3 37 31 76 62 39 31 77 62 85 70 8 7 44 38
79 68 36 30 70 59 76 65 6 5 46 41 90 80 158 139 561 549 739 751 383 434 767
982 1071 1526 141 252 318 613 420 858 111 267 265 690 304 835 4 17 24 84 43
150 70 237 181 706 202 855 4 25 11 68 16 95 14 74 47 291 55 360 3 33 8 62 9
66 2 3 7 42 10 87 3 45 8 90 10 101 2 10 6 58 10 107 4 49 9 102 11 119 26
221 26 1015 -1 1355 -8 99 -17 198 -20 220 -3 14 -7 52 -10 85 -6 63 -7 76
-25 208 -21 151 -23 165 -50 322 -28 164 -27 160 -66 345 -269 1263 -818 2460
-1603 3495 -121 160 -348 436 -453 550 -20 22 -65 71 -100 110 -139 152 -448
456 -634 622 -145 130 -478 400 -625 506 -859 623 -1710 1049 -2694 1349 -71
21 -137 41 -145 43 -8 2 -103 26 -210 54 -165 42 -325 80 -414 97 -11 2 -32 6
-46 9 -31 7 -59 12 -130 25 -30 6 -65 12 -76 14 -12 2 -39 7 -60 10 -22 3 -50
8 -64 11 -14 2 -43 7 -65 10 -22 3 -67 10 -100 15 -69 10 -117 17 -195 25 -30
4 -66 8 -80 10 -14 2 -61 7 -105 11 -44 4 -93 8 -110 10 -28 3 -121 10 -280
20 -84 6 -792 14 -797 9z m782 -250 c41 -2 109 -7 150 -10 80 -4 180 -13 245
-20 22 -3 65 -7 95 -10 30 -4 69 -8 85 -10 17 -2 53 -7 80 -10 28 -4 61 -8 74
-10 13 -2 45 -7 70 -10 25 -4 69 -10 96 -15 28 -5 66 -11 85 -14 19 -3 85 -15
145 -26 61 -12 121 -23 135 -26 14 -2 36 -7 50 -10 14 -3 36 -8 50 -11 14 -2
81 -18 150 -34 69 -17 132 -32 140 -34 230 -54 656 -189 945 -298 431 -163
930 -403 1299 -624 49 -29 90 -53 91 -53 12 0 398 -253 550 -361 124 -87 541
-411 565 -438 3 -3 39 -35 80 -71 41 -36 80 -69 86 -75 771 -701 1337 -1409
1822 -2280 93 -169 255 -492 327 -655 21 -47 48 -107 60 -135 72 -162 221
-567 290 -790 45 -145 151 -524 160 -575 5 -28 7 -36 29 -135 9 -38 25 -117
37 -175 11 -58 23 -114 25 -125 26 -130 70 -423 89 -605 3 -30 8 -71 10 -90 4
-37 12 -125 20 -225 28 -353 27 -1045 0 -1325 -4 -40 -13 -137 -21 -227 -3
-35 -7 -71 -8 -80 -2 -10 -7 -47 -11 -83 -4 -36 -9 -72 -10 -81 -2 -9 -6 -40
-10 -70 -3 -30 -8 -65 -10 -79 -3 -14 -7 -41 -10 -60 -18 -115 -51 -294 -77
-415 -16 -77 -31 -149 -34 -160 -52 -266 -266 -968 -359 -1180 -7 -16 -29 -70
-48 -120 -39 -99 -90 -219 -132 -311 -15 -32 -41 -88 -58 -124 -226 -490 -568
-1060 -907 -1510 -106 -142 -282 -364 -300 -380 -3 -3 -34 -39 -69 -80 -205
-241 -585 -626 -836 -846 -248 -218 -544 -451 -775 -609 -47 -32 -106 -73
-131 -92 -26 -18 -49 -33 -53 -33 -3 0 -27 -15 -53 -34 -27 -18 -109 -71 -183
-116 -763 -468 -1595 -815 -2454 -1025 -172 -41 -551 -120 -626 -129 -19 -2
-78 -11 -130 -20 -105 -16 -150 -23 -225 -31 -27 -3 -66 -8 -85 -10 -140 -19
-438 -42 -644 -51 -118 -5 -590 -5 -691 0 -140 7 -301 17 -345 21 -25 2 -74 7
-110 10 -162 15 -242 24 -425 50 -143 21 -143 21 -335 55 -173 31 -177 32
-250 49 -25 5 -59 12 -75 15 -23 4 -369 92 -475 120 -272 74 -878 292 -1124
406 -34 16 -88 40 -121 55 -154 70 -466 230 -680 350 -81 46 -351 212 -426
263 -39 26 -78 52 -87 57 -65 38 -319 222 -497 359 -353 273 -771 658 -1058
975 -62 68 -117 129 -122 135 -201 221 -607 751 -735 961 -8 13 -56 89 -107
168 -50 79 -104 166 -119 193 -14 27 -30 54 -34 59 -8 11 -29 48 -118 210
-278 507 -537 1136 -701 1705 -27 97 -68 244 -76 280 -2 8 -20 83 -40 165 -19
83 -37 161 -40 174 -2 14 -9 47 -15 75 -18 86 -19 94 -55 305 -2 13 -7 45 -11
70 -7 55 -12 89 -18 116 -2 11 -7 45 -10 76 -4 31 -8 65 -10 75 -2 11 -7 53
-11 94 -4 41 -8 82 -10 90 -2 8 -6 58 -10 110 -3 52 -8 106 -10 120 -26 175
-26 1145 0 1320 2 14 6 65 10 114 4 50 8 97 10 105 1 9 6 50 10 91 4 41 8 82
10 90 2 8 6 44 10 80 4 36 8 67 10 70 2 3 6 32 9 65 4 33 9 67 11 75 2 8 6 33
10 55 16 117 62 353 95 490 10 44 21 91 24 105 3 14 10 45 17 70 6 25 12 52
14 60 24 109 108 388 191 637 342 1025 911 2022 1628 2853 178 206 254 287
462 495 239 238 477 451 713 637 70 55 133 104 141 111 209 167 741 517 1010
664 366 200 646 335 975 468 162 66 527 200 590 217 11 3 90 27 175 53 85 26
161 49 170 51 8 1 113 28 233 58 120 30 231 57 245 60 15 3 99 19 187 36 182
35 177 34 305 54 155 24 234 34 388 51 23 3 61 7 85 10 23 2 78 7 122 11 44 3
98 7 120 9 22 2 110 7 195 10 85 4 157 9 159 11 5 4 656 -4 741 -11z"/>
<path d="M10105 18353 c-56 -13 -85 -75 -85 -181 0 -112 39 -167 120 -167 82
0 120 55 120 175 0 30 -5 72 -11 93 -16 60 -79 95 -144 80z m72 -92 c13 -50 7
-148 -10 -175 -20 -30 -26 -31 -53 -12 -16 12 -19 26 -18 100 0 67 4 89 18
104 23 26 54 17 63 -17z"/>
<path d="M10520 18331 c-25 -10 -110 -71 -110 -79 0 -4 7 -16 15 -26 13 -17
16 -17 37 -4 24 16 45 19 41 6 -2 -4 -6 -59 -9 -123 l-6 -115 36 0 c22 0 36 5
37 13 0 6 2 28 4 47 2 19 5 91 7 160 3 119 2 125 -17 126 -11 1 -27 -2 -35 -5z"/>
<path d="M9284 18319 c-12 -4 -43 -27 -68 -50 l-46 -43 22 -23 22 -24 24 26
c13 15 26 24 29 22 2 -3 7 -36 10 -73 3 -38 6 -82 8 -99 1 -16 3 -40 4 -53 1
-20 5 -23 39 -20 41 3 39 -6 28 118 -3 41 -9 107 -12 145 -4 39 -8 72 -10 74
-8 9 -29 9 -50 0z"/>
<path d="M10827 18299 c-32 -19 -60 -90 -65 -166 -8 -119 29 -173 117 -173 39
0 52 5 73 28 73 77 68 276 -8 311 -31 14 -93 14 -117 0z m94 -71 c15 -29 5
-152 -16 -184 -21 -32 -53 -31 -66 3 -11 31 -3 142 13 160 6 7 7 13 3 13 -4 0
-2 7 5 15 18 22 47 18 61 -7z"/>
<path d="M8905 18280 c-11 -4 -40 -29 -64 -55 l-43 -47 20 -21 21 -21 28 28
28 28 12 -93 c7 -52 13 -109 15 -127 2 -31 4 -33 38 -30 35 3 35 3 34 48 -2
58 -32 282 -39 289 -9 8 -29 9 -50 1z"/>
<path d="M11223 18258 c-58 -15 -96 -99 -95 -210 0 -90 40 -138 113 -138 75 0
109 45 127 164 14 87 -5 151 -50 173 -36 17 -60 20 -95 11z m67 -73 c17 -20 7
-133 -16 -180 -34 -72 -79 -31 -71 64 9 106 50 161 87 116z"/>
<path d="M8483 18214 c-39 -20 -57 -61 -54 -128 5 -130 55 -209 131 -208 84 1
122 53 115 155 -10 156 -90 231 -192 181z m80 -62 c20 -22 47 -134 41 -170 -7
-36 -18 -46 -47 -38 -27 6 -45 54 -54 141 -4 40 -2 55 12 68 21 21 28 21 48
-1z"/>
<path d="M11585 18190 c-73 -28 -122 -209 -79 -291 15 -29 65 -59 100 -59 41
0 82 32 102 78 51 120 42 230 -20 263 -27 14 -77 19 -103 9z m78 -137 c-4
-103 -50 -175 -87 -137 -27 26 -6 165 30 205 15 17 20 18 38 5 18 -12 21 -23
19 -73z"/>
<path d="M8144 18150 c-42 -9 -52 -16 -70 -53 -28 -53 -4 -195 42 -251 37 -45
79 -53 140 -28 53 22 70 80 53 176 -10 56 -41 118 -70 143 -20 16 -58 21 -95
13z m79 -131 c32 -93 21 -163 -24 -152 -25 7 -46 53 -60 130 -9 45 -8 59 6 80
15 22 18 23 38 10 12 -8 30 -38 40 -68z"/>
<path d="M11952 18076 c-34 -17 -62 -33 -62 -36 0 -3 6 -15 14 -25 13 -19 16
-19 49 -3 l34 16 -32 -124 c-31 -118 -31 -125 -14 -134 48 -26 53 -18 93 139
48 189 48 183 10 191 -23 5 -46 -1 -92 -24z"/>
<path d="M7803 18060 c-12 -5 -40 -34 -63 -65 -40 -54 -41 -57 -23 -70 26 -21
38 -18 53 10 7 14 16 25 20 25 3 0 19 -50 35 -110 16 -61 32 -115 35 -120 4
-6 21 -7 39 -4 31 6 33 9 27 38 -14 74 -82 300 -91 302 -6 1 -20 -1 -32 -6z"/>
<path d="M12297 18002 c-56 -34 -104 -185 -83 -266 12 -50 91 -83 149 -63 66
22 129 201 97 278 -24 57 -109 84 -163 51z m97 -117 c-2 -19 -13 -59 -25 -90
-16 -42 -26 -56 -46 -61 -30 -8 -43 7 -43 53 0 46 37 140 63 158 20 14 23 14
39 -5 11 -13 15 -32 12 -55z"/>
<path d="M7437 17952 c-9 -4 -35 -34 -57 -67 -36 -54 -37 -60 -22 -71 25 -20
35 -17 57 16 l21 29 39 -125 c31 -102 41 -124 54 -118 9 3 24 9 34 11 9 3 17
10 17 17 0 6 -22 79 -48 161 -49 150 -56 162 -95 147z"/>
<path d="M12627 17861 c-57 -63 -85 -179 -60 -243 11 -27 25 -40 54 -52 49
-20 62 -20 99 -1 73 38 129 222 86 287 -21 32 -57 48 -105 48 -32 0 -45 -7
-74 -39z m113 -36 c17 -21 8 -81 -23 -149 -21 -46 -30 -56 -51 -56 -47 0 -50
48 -10 145 28 70 58 91 84 60z"/>
<path d="M7087 17833 c-16 -4 -97 -115 -97 -133 0 -4 11 -12 24 -18 22 -10 27
-8 45 21 l20 31 9 -24 c5 -14 25 -67 43 -118 34 -93 34 -93 64 -87 16 3 33 9
37 13 8 8 -106 316 -119 318 -4 1 -16 -1 -26 -3z"/>
<path d="M9708 17835 c-1 -1 -64 -6 -138 -9 -74 -4 -160 -10 -190 -13 -30 -3
-62 -5 -70 -5 -8 0 -49 -4 -90 -8 -107 -13 -169 -20 -215 -24 -22 -3 -69 -9
-105 -15 -36 -5 -85 -13 -110 -16 -47 -7 -247 -41 -290 -50 -14 -3 -38 -8 -55
-11 -285 -51 -782 -192 -1133 -320 -595 -219 -1143 -498 -1665 -847 -299 -201
-548 -392 -827 -638 -157 -138 -447 -419 -556 -539 -126 -139 -204 -228 -255
-290 -30 -36 -56 -67 -59 -70 -8 -7 -180 -226 -232 -295 -70 -94 -238 -334
-238 -342 0 -4 -8 -16 -18 -27 -10 -12 -56 -82 -102 -156 -46 -74 -90 -146
-99 -160 -9 -14 -21 -34 -27 -45 -5 -11 -23 -42 -39 -70 -90 -159 -127 -229
-214 -405 -53 -107 -118 -244 -145 -305 -195 -445 -383 -1011 -471 -1420 -2
-11 -6 -29 -9 -40 -5 -24 -43 -208 -51 -250 -3 -16 -14 -84 -26 -150 -11 -66
-22 -131 -24 -145 -3 -14 -7 -50 -11 -80 -3 -30 -8 -63 -9 -72 -2 -9 -7 -48
-10 -85 -4 -37 -9 -75 -10 -84 -2 -9 -6 -52 -10 -95 -4 -43 -9 -95 -10 -114
-27 -282 -27 -983 0 -1270 2 -25 7 -74 10 -110 10 -106 29 -267 40 -340 2 -14
7 -45 10 -70 15 -110 53 -321 84 -465 56 -264 106 -456 172 -670 337 -1092
899 -2087 1663 -2940 80 -89 466 -478 561 -566 659 -602 1492 -1124 2340
-1467 433 -175 1008 -345 1430 -422 114 -21 417 -70 465 -75 30 -3 66 -8 80
-10 14 -2 52 -7 85 -10 109 -10 170 -16 200 -20 17 -2 82 -7 145 -11 63 -3
138 -8 165 -10 65 -4 637 -4 695 0 25 2 103 7 175 11 71 4 138 9 149 11 10 2
57 6 104 10 47 3 92 7 101 9 9 1 45 6 81 10 36 4 72 9 80 10 15 3 91 13 145
19 26 4 59 9 130 22 11 2 47 9 80 14 33 5 71 12 85 15 14 3 61 13 105 21 44 9
118 25 165 36 47 11 92 21 100 23 258 60 599 164 890 272 896 333 1714 824
2460 1477 148 130 547 528 676 676 714 815 1239 1728 1568 2723 52 156 131
424 141 477 2 12 11 46 19 74 8 28 17 62 20 76 3 14 16 75 30 135 14 61 28
125 31 143 3 18 12 63 19 100 17 81 63 365 71 442 3 30 8 75 11 100 3 25 7 56
9 70 2 14 7 61 11 105 3 44 7 93 9 109 27 217 27 1017 0 1276 -2 19 -6 67 -10
105 -4 39 -8 84 -10 100 -2 17 -6 55 -10 85 -3 30 -11 89 -17 130 -6 41 -12
86 -13 100 -16 133 -89 503 -145 730 -287 1159 -846 2249 -1629 3175 -47 55
-92 107 -100 116 -9 9 -52 56 -96 105 -118 131 -414 424 -551 544 -65 58 -128
113 -139 124 -11 10 -96 80 -190 155 -314 252 -730 536 -1025 698 -30 16 -102
56 -160 88 -142 79 -462 234 -623 301 -34 14 -80 34 -102 44 -131 58 -459 175
-690 246 -402 123 -928 236 -1300 279 -27 3 -59 8 -70 10 -11 2 -56 7 -100 10
-44 4 -90 8 -103 10 -13 2 -67 7 -120 10 -53 4 -119 9 -147 11 -55 6 -741 14
-747 9z m737 -169 c28 -3 88 -8 135 -11 106 -7 171 -13 235 -20 228 -27 262
-32 385 -51 52 -9 106 -17 120 -19 57 -9 190 -34 251 -49 37 -8 78 -17 90 -20
13 -2 56 -12 94 -21 39 -9 77 -18 85 -20 116 -25 409 -111 605 -177 420 -141
880 -342 1235 -540 74 -42 151 -84 170 -94 19 -11 37 -21 40 -24 3 -3 57 -36
120 -74 721 -435 1434 -1066 1985 -1756 178 -224 437 -588 509 -715 9 -16 24
-42 34 -56 132 -202 416 -750 519 -1004 14 -33 33 -78 43 -100 61 -138 202
-544 269 -775 58 -204 118 -446 145 -585 34 -175 66 -364 81 -475 3 -25 8 -56
10 -70 2 -14 7 -52 10 -85 3 -33 8 -71 10 -85 2 -14 7 -61 10 -105 4 -44 8
-91 10 -105 26 -173 26 -1101 0 -1240 -1 -8 -6 -55 -9 -105 -4 -49 -9 -97 -11
-105 -2 -8 -7 -46 -10 -84 -3 -38 -12 -110 -20 -160 -7 -50 -16 -108 -19 -128
-3 -21 -9 -55 -12 -75 -3 -21 -7 -45 -9 -53 -2 -8 -7 -35 -10 -60 -3 -25 -10
-61 -15 -80 -5 -19 -12 -52 -15 -72 -3 -20 -22 -103 -41 -185 -19 -81 -37
-157 -39 -168 -3 -11 -25 -92 -50 -180 -25 -88 -48 -168 -50 -178 -6 -28 -115
-347 -140 -412 -102 -262 -135 -340 -223 -535 -9 -19 -16 -37 -17 -40 -4 -23
-236 -470 -282 -542 -12 -21 -23 -40 -23 -42 0 -12 -187 -311 -285 -457 -215
-319 -525 -710 -743 -938 -635 -666 -1220 -1119 -1982 -1535 -125 -69 -550
-276 -565 -276 -2 0 -32 -13 -67 -29 -204 -93 -635 -244 -941 -330 -158 -45
-521 -131 -617 -146 -19 -3 -59 -10 -89 -16 -30 -6 -64 -12 -75 -14 -12 -1
-50 -8 -86 -14 -36 -6 -85 -13 -110 -16 -25 -3 -55 -7 -67 -9 -12 -3 -53 -8
-90 -11 -37 -4 -75 -9 -84 -10 -9 -2 -52 -6 -95 -10 -43 -3 -95 -8 -114 -10
-39 -5 -193 -15 -308 -21 -91 -4 -605 -4 -677 0 -194 12 -330 22 -410 31 -27
3 -72 8 -100 11 -27 3 -66 7 -85 9 -19 3 -55 7 -79 10 -23 3 -55 7 -70 9 -14
3 -43 7 -63 10 -61 9 -109 17 -132 22 -11 2 -59 11 -106 19 -47 8 -98 18 -115
21 -93 16 -364 81 -520 124 -629 172 -1219 416 -1770 733 -93 54 -201 118
-240 143 -38 24 -77 48 -85 51 -8 4 -19 11 -25 15 -5 5 -77 54 -160 110 -384
259 -708 524 -1055 863 -724 707 -1300 1546 -1690 2460 -23 55 -50 118 -60
140 -93 211 -295 835 -335 1035 -2 8 -10 42 -19 75 -14 57 -71 326 -82 390 -2
17 -9 55 -14 85 -5 30 -12 71 -15 90 -3 19 -7 46 -10 60 -2 14 -7 43 -10 65
-2 22 -7 56 -10 75 -3 19 -7 58 -10 85 -3 28 -7 64 -9 80 -2 17 -7 64 -10 105
-4 41 -9 95 -11 120 -16 169 -20 288 -20 615 1 204 4 415 8 470 13 179 22 278
32 365 18 150 24 200 28 230 3 14 7 50 11 80 4 30 9 62 11 70 2 8 7 33 10 55
6 43 8 58 25 140 5 28 12 66 15 85 5 29 77 349 90 400 35 131 48 181 73 265
61 207 192 586 242 700 9 22 48 112 86 200 71 167 220 472 297 610 90 162 102
182 175 305 95 158 226 354 361 540 57 80 107 147 110 150 4 3 19 22 35 44 80
107 257 316 415 491 105 116 429 433 552 540 68 59 138 120 154 134 145 128
444 352 673 505 637 426 1325 751 2067 975 87 26 346 96 393 106 9 2 55 12
102 23 169 40 464 93 640 117 25 3 56 8 70 10 14 2 57 7 95 11 39 3 77 8 86 9
9 2 52 6 95 10 43 4 95 8 114 10 19 2 96 6 170 10 74 4 136 9 138 10 6 5 687
-3 737 -9z"/>
<path d="M9219 15596 c-2 -2 -20 -6 -39 -9 -30 -4 -274 -46 -365 -62 -143 -26
-194 -35 -220 -39 -157 -25 -462 -80 -468 -86 -4 -4 42 -109 103 -235 60 -125
110 -229 110 -230 0 -1 48 -101 106 -221 58 -121 121 -250 139 -289 18 -38 69
-144 113 -235 44 -91 100 -208 125 -260 25 -52 82 -171 127 -265 45 -93 99
-206 120 -250 21 -44 72 -152 115 -240 43 -88 94 -196 115 -240 21 -44 79
-165 130 -270 51 -104 107 -221 125 -260 36 -77 120 -252 245 -510 45 -93 97
-201 115 -240 102 -217 216 -447 220 -443 3 3 438 868 967 1924 528 1055 1000
1997 1048 2091 68 138 83 174 70 178 -8 2 -44 9 -80 15 -85 14 -170 29 -196
34 -12 2 -37 7 -55 10 -19 3 -99 17 -179 31 -80 14 -156 28 -170 30 -35 5 -82
13 -175 30 -44 8 -97 17 -119 21 -21 3 -48 8 -60 10 -11 3 -41 7 -66 10 l-45
5 -142 -353 c-78 -194 -217 -537 -308 -763 -91 -225 -230 -567 -307 -758 -78
-191 -144 -344 -149 -340 -4 4 -33 73 -64 153 -31 80 -67 170 -80 200 -13 30
-67 165 -120 300 -53 135 -102 259 -109 275 -7 17 -68 170 -136 340 -67 171
-128 324 -135 340 -7 17 -36 89 -64 160 -29 72 -58 144 -65 160 -7 17 -35 87
-62 157 -48 125 -50 128 -80 128 -17 0 -33 -2 -35 -4z"/>
<path d="M14128 15145 c-2 -1 -50 -5 -108 -9 -58 -3 -121 -8 -140 -11 -69 -11
-155 -25 -175 -29 -655 -140 -1158 -515 -1425 -1061 -55 -113 -87 -199 -124
-330 -21 -79 -30 -117 -50 -237 -30 -175 -22 -534 14 -678 5 -19 12 -51 15
-70 20 -115 94 -322 163 -455 178 -344 485 -634 851 -808 234 -110 428 -165
756 -212 76 -11 440 -14 505 -4 36 5 81 12 100 14 113 13 264 47 357 81 77 28
76 26 87 119 10 86 18 151 21 165 3 15 15 111 20 165 2 17 11 86 20 155 9 69
18 141 21 160 2 19 6 49 9 65 2 17 7 55 10 85 3 30 8 68 11 84 l5 29 -26 -17
c-130 -85 -376 -202 -470 -223 -161 -35 -207 -41 -325 -38 -296 8 -526 83
-734 240 -207 155 -362 424 -392 678 -4 29 -8 55 -10 58 -5 9 -6 230 -1 254 3
11 8 46 11 78 9 73 55 215 97 299 173 344 520 561 949 594 112 9 105 9 200 1
178 -13 337 -70 577 -204 35 -19 65 -39 69 -44 3 -5 10 -9 15 -9 12 0 9 29
-22 220 -11 69 -22 139 -24 155 -2 17 -6 44 -9 60 -2 17 -8 50 -11 75 -4 25
-9 52 -10 61 -2 9 -6 34 -9 55 -3 22 -8 50 -11 64 -2 14 -7 43 -10 65 -3 22
-12 86 -21 142 l-17 102 -91 30 c-129 41 -223 61 -362 76 -56 6 -301 14 -306
10z"/>
<path d="M4809 15057 c-1 -1 -2 -842 -3 -1869 -1 -1653 1 -1867 14 -1871 28
-6 1555 0 1620 7 97 10 142 16 170 21 14 3 41 7 60 10 142 23 328 78 478 141
315 132 554 305 792 574 51 57 176 249 219 336 73 148 137 335 157 458 3 21 8
48 10 60 8 39 18 190 18 266 -1 471 -182 899 -525 1241 -343 342 -779 545
-1320 616 -38 5 -1687 15 -1690 10z m1576 -816 c116 -25 191 -50 293 -97 429
-202 692 -642 638 -1068 -16 -122 -43 -211 -98 -320 -60 -120 -112 -192 -212
-292 -181 -180 -386 -287 -656 -339 -19 -4 -144 -9 -277 -12 -232 -5 -243 -4
-243 13 0 11 -2 495 -3 1076 -2 933 0 1058 13 1061 8 1 112 2 230 1 175 -2
234 -6 315 -23z"/>
<path d="M9959 10841 c-5 -87 -2 -344 3 -348 5 -2 17 -6 28 -8 47 -9 113 -77
138 -140 32 -84 41 -159 41 -380 l1 -160 225 0 c218 0 225 1 226 20 19 437
-53 710 -230 873 -67 61 -189 121 -283 137 -113 20 -148 22 -149 6z"/>
<path d="M14240 10853 c-66 -9 -180 -37 -225 -56 -77 -32 -178 -102 -230 -160
-55 -62 -119 -189 -138 -273 -14 -63 -16 -249 -3 -319 25 -130 109 -277 229
-397 82 -83 241 -228 249 -228 4 0 75 68 158 152 l150 151 -128 126 c-128 125
-171 186 -200 281 -25 78 -19 189 13 256 21 44 77 91 124 104 l39 10 -1 176
c0 96 -3 176 -6 178 -3 1 -17 1 -31 -1z"/>
<path d="M14349 10831 c-1 -28 -1 -308 0 -328 1 -6 11 -15 22 -18 80 -26 147
-177 145 -327 -1 -60 3 -71 24 -70 7 0 91 12 120 17 79 13 221 35 255 40 73
11 73 11 69 63 -8 123 -27 197 -77 297 -97 196 -287 324 -514 348 -41 4 -43 3
-44 -22z"/>
<path d="M9730 10835 c-308 -62 -488 -294 -528 -679 -4 -39 -7 -343 -7 -676 0
-534 2 -616 18 -698 47 -253 159 -432 329 -525 94 -52 161 -71 285 -82 l61 -5
1 180 0 179 -32 6 c-82 16 -152 98 -184 215 -16 59 -18 128 -18 735 0 369 3
695 7 725 19 147 74 232 174 269 l49 19 2 176 2 176 -47 -1 c-26 0 -76 -7
-112 -14z"/>
<path d="M4803 10803 c-6 -2 -10 -2449 -4 -2565 1 -17 19 -18 229 -18 l228 0
0 1292 -1 1293 -222 0 c-122 0 -226 -1 -230 -2z"/>
<path d="M5720 10248 l0 -558 -195 0 -195 0 -1 -37 c0 -21 -1 -87 -1 -148 l0
-110 193 -1 194 0 3 -587 2 -587 233 0 232 0 0 1290 c0 710 -2 1291 -5 1291
-3 1 -107 2 -232 3 l-228 1 0 -557z"/>
<path d="M7595 10770 c3 -19 7 -42 10 -50 2 -8 6 -33 10 -55 3 -22 10 -67 16
-100 6 -33 13 -71 15 -85 3 -14 9 -49 15 -79 6 -30 12 -64 14 -75 2 -12 13
-73 24 -136 12 -63 23 -128 26 -145 3 -16 15 -79 25 -140 50 -273 71 -399 85
-485 3 -19 8 -46 10 -60 12 -56 16 -80 35 -195 12 -66 25 -145 31 -175 5 -30
12 -70 15 -89 3 -18 8 -43 10 -55 2 -11 7 -37 9 -56 3 -19 8 -44 10 -56 3 -12
7 -39 11 -60 3 -21 14 -82 23 -134 10 -52 27 -146 37 -207 l18 -113 223 0
c123 0 223 3 223 6 0 3 -4 24 -10 47 -5 23 -33 150 -60 282 -28 132 -57 269
-65 305 -26 118 -64 294 -69 325 -3 17 -8 39 -10 50 -3 11 -37 171 -76 355
-39 184 -84 396 -100 470 -16 74 -32 151 -35 170 -3 19 -10 51 -15 70 -9 33
-37 165 -47 220 -2 14 -13 66 -24 115 -12 50 -23 101 -25 115 -11 58 0 55
-189 55 l-176 0 6 -35z"/>
<path d="M11473 10803 c-6 -2 -8 -2232 -3 -2555 l0 -28 229 0 229 0 1 1290 c0
710 -3 1291 -7 1291 -14 3 -442 4 -449 2z"/>
<path d="M12395 10795 c-7 -5 -58 -125 -113 -265 -55 -140 -142 -361 -192
-489 l-93 -235 -1 -165 c-1 -172 5 -206 57 -322 8 -19 95 -241 193 -494 97
-253 189 -491 204 -530 l28 -70 241 -3 241 -2 -9 22 c-13 36 -191 469 -206
503 -7 17 -64 154 -125 305 -62 151 -141 344 -176 429 -35 84 -64 157 -64 162
0 5 68 158 151 341 83 183 159 352 170 374 10 23 59 130 109 239 49 108 90
200 90 204 0 11 -492 7 -505 -4z"/>
<path d="M7510 10796 c0 -3 -24 -120 -80 -381 -10 -49 -51 -241 -90 -425 -40
-184 -74 -345 -76 -357 -2 -12 -16 -75 -29 -140 -14 -65 -30 -138 -35 -163 -5
-25 -30 -142 -55 -260 -26 -118 -49 -226 -51 -240 -3 -14 -18 -86 -34 -160
-16 -74 -32 -148 -35 -165 -3 -16 -18 -87 -33 -157 l-29 -128 228 0 c208 0
228 1 233 18 4 14 33 157 50 252 3 14 14 75 26 135 12 61 24 124 27 142 l5 31
165 0 c90 0 166 2 168 4 3 2 0 31 -5 64 -5 32 -11 77 -15 99 -3 22 -8 54 -11
72 l-6 32 -101 -1 c-174 0 -160 -4 -153 40 2 21 14 92 25 158 11 65 22 137 26
158 3 21 7 48 10 60 2 12 7 37 9 56 3 19 15 93 26 163 12 71 19 143 16 160 -3
18 -23 131 -45 252 -50 276 -52 288 -55 300 -2 6 -6 33 -10 60 -4 28 -12 66
-16 85 -5 19 -11 53 -15 75 -13 88 -27 165 -31 165 -2 0 -4 -2 -4 -4z"/>
<path d="M14324 9519 l-151 -150 101 -102 c111 -113 115 -118 167 -197 38 -58
88 -172 95 -219 17 -108 7 -192 -32 -249 -28 -42 -49 -57 -100 -71 l-40 -11 1
-172 1 -173 60 2 c133 3 299 78 400 181 76 77 147 215 159 310 6 39 7 203 2
232 -27 167 -90 314 -201 460 -61 81 -285 310 -303 310 -4 0 -76 -68 -159
-151z"/>
<path d="M10243 9242 l-71 -3 -1 -176 c-1 -97 -4 -197 -7 -222 -20 -167 -82
-278 -163 -298 -14 -3 -30 -9 -36 -14 -8 -5 -12 -290 -6 -352 1 -5 29 -6 63
-2 163 18 271 68 378 175 120 120 174 244 205 470 3 25 8 58 11 73 6 39 8 336
2 342 -6 6 -273 11 -375 7z"/>
<path d="M13960 9004 c-63 -13 -124 -26 -135 -28 -11 -2 -60 -12 -108 -21
l-89 -18 7 -61 c14 -135 70 -306 130 -401 108 -168 281 -279 470 -300 l60 -6
-1 178 c-1 98 -2 181 -3 184 0 4 -11 10 -23 13 -76 21 -146 160 -164 326 -4
36 -8 72 -10 80 -1 8 -3 30 -3 48 -1 17 -4 32 -8 31 -5 -1 -60 -12 -123 -25z"/>
<path d="M6381 7536 c-6 -7 -20 -38 -30 -68 -22 -65 -35 -89 -164 -313 -54
-93 -131 -215 -172 -270 -171 -232 -204 -276 -291 -385 -141 -177 -305 -333
-333 -316 -21 14 25 91 318 530 l206 309 0 59 c-1 49 -5 62 -26 84 -32 31 -98
43 -120 22 -8 -8 -39 -43 -69 -78 -30 -35 -59 -68 -65 -74 -44 -50 -140 -153
-249 -271 -72 -76 -165 -175 -206 -219 -41 -45 -107 -115 -146 -156 -39 -41
-85 -91 -103 -110 l-33 -35 44 85 c102 194 342 583 503 813 67 96 71 129 23
180 -40 42 -65 56 -90 49 -34 -9 -193 -236 -463 -662 -143 -226 -190 -329
-200 -439 -10 -112 65 -165 155 -110 47 29 135 98 191 151 25 24 97 90 159
148 62 58 126 117 141 132 16 15 29 26 29 24 0 -2 -18 -40 -41 -85 -62 -125
-88 -210 -85 -283 2 -71 14 -98 54 -126 72 -52 247 14 362 135 78 82 46 43
371 453 341 429 468 597 475 625 8 33 -34 164 -61 191 -27 27 -66 31 -84 10z"/>
<path d="M7258 7482 c-97 -49 -176 -108 -256 -191 -146 -151 -322 -421 -386
-591 -17 -45 -31 -62 -223 -268 -92 -98 -177 -172 -198 -172 -11 0 6 61 28 99
11 20 35 65 55 101 19 36 42 79 52 95 9 17 34 62 55 100 20 39 48 84 61 102
33 44 31 82 -9 132 -39 50 -71 73 -89 66 -14 -6 -99 -128 -139 -200 -168 -303
-190 -366 -155 -448 19 -47 70 -87 111 -87 76 0 142 49 274 205 102 121 124
146 128 142 1 -2 -4 -39 -13 -83 -30 -157 -17 -256 42 -310 32 -31 60 -37 131
-30 100 10 210 63 299 145 120 111 246 332 198 348 -5 2 -20 -14 -32 -36 -38
-67 -155 -213 -219 -272 -94 -87 -191 -123 -224 -82 -9 10 -13 37 -12 71 1 46
12 77 67 186 184 369 416 694 620 871 60 52 96 72 96 54 0 -6 -22 -51 -50
-101 -27 -50 -50 -92 -50 -94 0 -9 -72 -115 -118 -174 -28 -35 -48 -68 -46
-72 8 -13 142 31 188 62 61 41 99 81 145 149 85 127 105 213 59 256 -46 43
-80 53 -198 59 l-115 7 -77 -39z"/>
<path d="M9405 7487 c-166 -80 -316 -228 -476 -467 -224 -335 -317 -719 -202
-838 45 -48 111 -54 217 -21 81 24 159 70 226 132 121 112 250 347 190 347 -6
0 -13 -8 -17 -17 -15 -43 -125 -185 -203 -264 -87 -88 -154 -129 -210 -129
-40 0 -55 24 -54 86 1 44 12 75 59 171 188 380 426 715 635 893 85 73 108 78
77 17 -68 -135 -167 -299 -197 -327 -18 -17 -58 -78 -54 -83 8 -8 86 12 139
37 100 46 174 125 240 253 48 94 48 143 -1 188 -40 37 -57 41 -199 50 -99 6
-101 6 -170 -28z"/>
<path d="M10070 7508 c-16 -6 -44 -40 -79 -96 -81 -129 -251 -423 -251 -433 0
-5 -4 -9 -10 -9 -5 0 -10 -4 -10 -8 0 -5 -50 -96 -110 -203 -126 -223 -160
-303 -161 -381 -2 -96 44 -168 105 -168 46 0 83 29 263 208 67 67 123 121 123
119 0 -1 -10 -27 -21 -57 -51 -130 -26 -219 64 -235 35 -7 93 37 230 177 64
66 117 115 117 110 0 -5 -9 -37 -19 -70 -44 -136 -39 -161 38 -212 75 -50 85
-46 225 90 l124 121 11 -48 c14 -55 25 -72 63 -97 37 -24 68 -13 68 23 0 28
78 123 279 340 165 179 175 189 205 207 l30 19 -43 -80 c-103 -189 -192 -293
-351 -406 -107 -76 -112 -93 -50 -157 45 -48 60 -50 115 -21 142 76 262 191
369 354 66 100 82 135 95 209 9 49 8 64 -5 92 -23 48 -89 105 -111 97 -24 -9
-51 -34 -308 -281 -50 -48 -104 -98 -120 -112 -28 -25 -28 -24 10 45 21 39 84
135 139 214 56 79 120 171 143 205 23 33 45 66 50 71 12 16 38 60 89 153 36
65 45 89 39 110 -8 33 -98 122 -123 122 -11 0 -27 -15 -39 -37 -11 -21 -35
-65 -53 -98 -66 -121 -86 -154 -216 -345 -135 -200 -248 -401 -260 -464 -5
-28 -34 -65 -134 -168 -70 -73 -131 -130 -135 -127 -22 22 61 201 200 429 32
52 59 105 60 116 5 37 -56 94 -107 101 -40 5 -59 -13 -143 -137 -72 -107 -387
-452 -400 -439 -3 4 50 119 118 255 69 137 128 259 131 271 9 30 -7 57 -48 82
-61 38 -76 31 -141 -66 -31 -47 -77 -125 -102 -172 -43 -83 -104 -158 -258
-316 -61 -63 -149 -135 -165 -135 -11 0 12 80 44 151 13 30 62 122 108 204
194 346 196 349 239 373 106 61 183 163 203 270 7 37 12 78 10 92 -1 14 -4 40
-5 59 -2 23 -13 41 -37 61 -42 34 -59 39 -92 28z m84 -205 c-25 -83 -110 -223
-150 -246 -12 -7 45 101 86 163 5 8 23 41 40 73 17 31 32 57 34 57 2 0 -2 -21
-10 -47z"/>
<path d="M8229 7501 c-2 -6 -26 -13 -53 -15 -159 -17 -322 -132 -399 -281 -46
-89 -57 -162 -52 -335 10 -307 8 -350 -20 -431 -48 -137 -168 -245 -233 -210
-44 24 -49 84 -26 339 4 34 3 78 0 97 -7 35 -7 35 -35 20 -39 -20 -96 -88
-127 -152 -20 -40 -26 -68 -26 -120 -1 -82 8 -104 61 -165 63 -70 114 -91 237
-95 189 -5 280 45 353 193 42 85 51 144 51 334 0 69 -2 136 -5 150 -3 14 -8
61 -11 105 -11 142 41 278 146 384 53 53 153 112 166 98 14 -14 4 -80 -19
-129 -14 -29 -66 -102 -115 -163 -73 -90 -86 -111 -71 -113 11 -2 35 2 54 8
19 6 51 14 71 16 94 12 186 80 235 175 18 37 21 54 16 112 -7 83 -30 125 -83
154 -47 26 -110 39 -115 24z"/>
<path d="M14909 7446 c-2 -2 -17 -6 -34 -9 -140 -22 -290 -110 -414 -243 -107
-114 -141 -209 -107 -297 35 -92 105 -139 209 -142 39 -2 84 1 101 6 16 5 32
7 34 4 6 -5 -39 -83 -96 -165 -64 -92 -76 -107 -143 -177 -60 -63 -101 -91
-145 -99 -21 -4 -24 0 -24 25 0 15 7 48 15 71 26 75 14 120 -42 149 -19 10
-25 6 -52 -31 -57 -77 -66 -175 -22 -236 57 -81 216 -112 314 -62 209 106 687
884 653 1063 -8 45 -57 103 -102 122 -32 13 -137 29 -145 21z m76 -116 c7 -11
-53 -174 -101 -277 -36 -75 -83 -132 -131 -156 -68 -36 -194 -61 -225 -45 -23
11 -14 76 20 148 46 95 214 245 352 312 60 30 76 33 85 18z"/>
<path d="M12591 7420 c-126 -34 -214 -102 -264 -203 -38 -78 -41 -123 -9 -147
30 -24 70 -26 100 -4 12 8 47 49 77 89 68 92 137 140 226 159 92 19 115 16
112 -12 -8 -67 -211 -288 -458 -498 -77 -65 -142 -121 -145 -124 -14 -14 -125
-103 -205 -165 -49 -38 -95 -74 -101 -80 -6 -5 -34 -31 -62 -57 -64 -60 -65
-63 -51 -90 37 -72 72 -82 173 -48 84 28 235 57 341 65 50 4 108 9 130 11 49
5 208 5 253 0 41 -5 49 11 32 64 -15 46 -72 107 -109 118 -34 9 -185 9 -236
-1 -22 -4 -65 -10 -95 -13 l-55 -6 25 18 c14 10 111 86 215 168 244 193 353
295 441 413 70 94 87 136 82 207 -7 116 -55 147 -228 153 -91 2 -130 -1 -189
-17z"/>
<path d="M13403 7419 c-22 -6 -49 -30 -80 -69 -43 -53 -52 -60 -84 -60 -32 0
-44 -8 -95 -62 -202 -219 -351 -538 -352 -752 0 -61 5 -85 28 -134 41 -87 102
-122 209 -122 118 0 209 40 292 127 136 143 203 248 305 479 93 212 104 250
110 373 4 89 2 111 -13 140 -20 39 -56 68 -93 77 -47 11 -195 13 -227 3z m171
-154 c-2 -66 -8 -98 -39 -180 -30 -80 -173 -379 -247 -515 -46 -86 -161 -210
-225 -244 -38 -19 -89 -21 -96 -3 -17 45 26 203 107 395 31 76 157 294 238
415 29 42 38 66 36 89 -3 29 0 32 47 47 28 10 73 31 100 49 73 47 80 42 79
-53z"/>
<path d="M14087 7366 c-51 -34 -111 -73 -135 -86 -40 -23 -42 -25 -25 -40 29
-27 66 -38 116 -35 26 1 47 -2 47 -7 0 -4 -19 -39 -41 -76 -219 -357 -425
-751 -436 -835 -4 -36 -2 -51 8 -58 20 -13 101 -10 120 4 8 7 36 50 62 97 26
47 54 96 62 110 15 26 85 150 208 370 96 173 196 345 227 390 84 125 85 138
15 184 -33 23 -70 38 -95 41 -37 3 -51 -3 -133 -59z"/>
<path d="M6474 7222 c-3 -9 -23 -57 -45 -107 -45 -107 -42 -114 50 -122 l62
-5 39 42 c82 89 59 150 -73 199 -23 9 -29 8 -33 -7z"/>
<path d="M12330 4760 c-1 -23 -1 -393 -1 -407 1 -7 10 -13 21 -13 18 0 20 7
20 67 l0 67 68 -66 c37 -37 74 -67 82 -68 44 -6 39 5 -28 73 l-73 74 68 61
c68 61 68 62 37 62 -25 0 -43 -11 -85 -55 -30 -30 -57 -55 -61 -55 -5 0 -8 63
-8 139 0 134 -1 140 -20 138 -11 -1 -20 -8 -20 -17z"/>
<path d="M13426 4772 c-2 -4 -3 -103 -4 -219 0 -212 0 -213 22 -213 20 0 21 5
22 90 0 107 18 143 76 148 59 5 73 -22 73 -139 0 -96 1 -99 23 -99 21 0 22 3
22 94 0 116 -11 149 -56 171 -38 18 -95 12 -115 -11 -6 -8 -15 -14 -18 -14 -4
0 -7 43 -7 97 1 84 -1 96 -16 99 -10 1 -20 -1 -22 -4z"/>
<path d="M6695 4741 c-84 -38 -128 -108 -127 -202 1 -139 121 -236 257 -206
40 8 105 50 105 68 0 21 -31 19 -62 -4 -76 -58 -191 -28 -234 60 -44 91 -10
203 76 248 40 21 126 13 154 -14 20 -19 28 -21 46 -11 27 15 15 31 -44 59 -52
26 -118 26 -171 2z"/>
<path d="M7042 4689 c-1 -61 1 -70 16 -67 14 3 18 17 20 71 3 60 1 67 -16 67
-17 0 -19 -8 -20 -71z"/>
<path d="M5589 4747 c-1 -1 -2 -93 -3 -204 l-1 -203 45 -1 c157 -5 232 22 276
96 44 77 37 184 -18 242 -46 49 -95 66 -200 70 -54 1 -99 2 -99 0z m225 -66
c106 -66 96 -231 -17 -285 -22 -10 -61 -16 -104 -16 l-68 0 2 152 c1 84 3 159
3 167 0 23 139 9 184 -18z"/>
<path d="M6094 4688 c13 -35 48 -127 78 -205 49 -131 55 -143 78 -143 23 0 29
11 74 128 116 304 111 282 76 282 -13 0 -33 -43 -81 -174 -45 -124 -66 -170
-73 -159 -4 8 -34 85 -66 171 -53 142 -60 156 -84 159 l-26 4 24 -63z"/>
<path d="M7969 4722 c0 -15 -1 -107 -2 -205 l-2 -177 23 0 c25 0 24 -1 23 110
l-2 76 60 1 c116 2 175 60 149 147 -16 51 -65 73 -168 74 l-80 1 -1 -27z m190
-36 c12 -11 21 -32 21 -47 0 -30 -33 -68 -59 -70 -9 -1 -36 -2 -61 -3 l-45 -1
-3 74 -3 73 65 -4 c45 -3 71 -10 85 -22z"/>
<path d="M11010 4723 c-1 -16 -2 -108 -3 -206 l-2 -177 23 0 c21 0 22 3 22 95
l0 95 110 0 110 0 0 -95 c0 -92 1 -95 23 -95 l23 0 -1 203 c0 195 -1 202 -20
202 -18 0 -21 -8 -25 -85 l-5 -85 -107 -1 -108 -2 0 89 c0 82 -1 89 -20 89
-15 0 -20 -7 -20 -27z"/>
<path d="M9761 4726 c-9 -11 -8 -17 5 -30 21 -22 39 -15 39 15 0 28 -26 37
-44 15z"/>
<path d="M13153 4683 c-7 -3 -13 -20 -13 -39 0 -31 -3 -34 -28 -34 -19 0 -29
-5 -29 -15 0 -14 13 -19 45 -18 6 1 12 -2 13 -6 0 -3 1 -50 2 -104 2 -90 4
-100 25 -118 13 -10 33 -17 45 -15 12 3 28 5 35 5 6 1 12 9 12 19 0 15 -6 18
-29 14 -40 -6 -48 15 -46 113 2 44 3 83 4 87 0 4 17 5 36 4 29 -3 35 -1 35 15
0 15 -7 19 -38 19 -38 0 -39 1 -37 34 3 34 -8 47 -32 39z"/>
<path d="M7393 4606 c-76 -34 -66 -121 15 -141 77 -17 101 -40 82 -76 -15 -26
-83 -26 -109 0 -17 17 -22 18 -38 5 -17 -13 -17 -15 7 -33 58 -46 158 -34 181
20 23 58 -8 97 -97 119 -30 7 -43 17 -48 33 -12 44 64 65 99 27 14 -15 21 -17
32 -9 19 16 16 26 -11 45 -35 22 -76 26 -113 10z"/>
<path d="M8494 4610 c-12 -5 -25 -13 -29 -19 -9 -15 -26 -14 -22 1 1 7 -7 14
-18 16 -20 3 -21 -2 -20 -133 0 -129 1 -135 20 -135 19 0 21 6 22 63 1 121 2
127 29 154 17 17 33 24 50 20 23 -4 26 -2 28 25 1 14 -33 19 -60 8z"/>
<path d="M8795 4612 c-79 -27 -120 -122 -85 -199 24 -55 63 -77 132 -77 49 -1
62 3 84 26 15 14 23 31 20 37 -10 16 -20 14 -46 -9 -48 -42 -137 -15 -155 48
-6 21 -4 22 52 23 179 3 168 1 166 34 -4 48 -22 80 -55 99 -34 21 -82 28 -113
18z m100 -57 c14 -13 25 -32 25 -42 0 -17 -8 -18 -77 -17 -43 1 -84 2 -90 3
-21 2 -15 21 16 52 38 38 91 40 126 4z"/>
<path d="M9228 4602 c-30 -16 -38 -17 -38 -6 0 8 -9 14 -20 14 -19 0 -20 -7
-20 -136 0 -133 0 -135 21 -132 20 3 22 9 23 95 1 82 3 94 25 117 29 31 71 34
94 8 13 -14 17 -41 18 -119 1 -90 3 -102 20 -106 23 -6 21 -13 23 100 3 109
16 138 68 141 59 4 73 -22 73 -139 0 -96 1 -99 23 -99 21 0 22 3 22 95 0 119
-14 158 -63 174 -44 15 -83 8 -113 -20 l-23 -22 -18 22 c-26 31 -71 36 -115
13z"/>
<path d="M10062 4600 c-40 -25 -59 -55 -68 -107 -15 -93 63 -173 155 -160 39
5 101 40 101 57 0 16 -33 20 -50 5 -51 -46 -129 -29 -155 33 l-14 31 112 3
112 3 -1 37 c-1 21 -9 49 -18 63 -32 48 -122 66 -174 35z m122 -42 c13 -13 27
-32 30 -43 5 -19 1 -20 -84 -20 -74 0 -90 2 -90 15 1 19 19 43 45 58 32 18 72
14 99 -10z"/>
<path d="M10540 4613 c-8 -3 -23 -12 -32 -21 -16 -13 -18 -13 -24 2 -3 9 -14
16 -23 16 -15 0 -17 -15 -16 -135 0 -133 0 -135 22 -135 22 0 23 3 23 95 0 88
2 96 26 120 18 18 34 25 50 22 21 -4 34 9 34 32 0 8 -40 11 -60 4z"/>
<path d="M11555 4602 c-37 -15 -40 -19 -26 -41 7 -11 13 -11 32 3 50 35 129
11 129 -40 0 -16 -8 -19 -55 -21 -116 -5 -169 -72 -111 -140 21 -24 32 -28 74
-28 35 0 56 6 71 19 19 17 26 15 22 -6 0 -5 9 -8 22 -8 22 0 22 2 19 106 -3
118 -14 147 -65 163 -39 13 -66 11 -112 -7z m135 -156 c0 -61 -85 -102 -129
-62 -44 40 0 84 87 85 38 1 42 -1 42 -23z"/>
<path d="M11990 4600 c-67 -35 -94 -123 -59 -192 27 -53 61 -72 129 -73 62 0
104 23 93 51 -6 15 -33 20 -33 6 0 -16 -45 -28 -78 -21 -44 9 -70 35 -78 75
-18 97 70 170 143 119 20 -14 53 -11 53 5 0 4 -12 16 -27 26 -38 24 -100 26
-143 4z"/>
<path d="M12783 4611 c-45 -11 -66 -30 -53 -46 9 -11 16 -11 38 1 56 29 115
10 124 -40 3 -17 -4 -20 -54 -22 -96 -5 -142 -42 -131 -104 6 -36 33 -60 76
-67 37 -6 97 12 97 28 0 5 5 9 10 9 6 0 10 -7 10 -15 0 -8 8 -15 18 -15 16 0
17 10 14 113 -3 99 -6 114 -25 134 -25 25 -78 35 -124 24z m111 -168 c-10 -41
-48 -76 -83 -76 -40 0 -63 20 -59 52 4 33 39 51 101 51 47 0 47 0 41 -27z"/>
<path d="M13935 4605 c-109 -39 -126 -188 -28 -252 38 -25 117 -26 158 -1 98
57 85 209 -22 254 -40 17 -57 17 -108 -1z m118 -51 c54 -54 42 -144 -23 -176
-101 -49 -191 92 -111 173 40 39 97 41 134 3z"/>
<path d="M14394 4599 c-25 -16 -29 -16 -39 -2 -7 9 -18 14 -26 11 -11 -4 -14
-31 -12 -127 0 -66 2 -125 2 -131 1 -5 10 -10 21 -10 18 0 20 7 20 79 0 85 11
127 38 147 25 20 69 17 92 -6 21 -21 22 -31 20 -147 -1 -71 0 -73 22 -73 24 0
24 1 23 103 -1 57 -7 112 -14 124 -25 47 -100 63 -147 32z"/>
<path d="M9762 4475 c0 -132 0 -135 21 -135 21 0 22 3 22 135 0 131 -1 135
-21 135 -21 0 -21 -4 -22 -135z"/>
<path d="M10162 3864 c-88 -44 -131 -120 -128 -225 2 -42 10 -78 24 -106 69
-134 256 -168 365 -68 33 31 34 38 3 54 -20 11 -26 10 -51 -13 -77 -71 -211
-41 -256 58 -57 125 21 266 146 266 42 0 84 -15 110 -40 19 -18 21 -18 43 -2
32 25 20 46 -41 77 -70 34 -145 34 -215 -1z"/>
<path d="M10669 3870 c-48 -25 -73 -77 -64 -132 9 -52 41 -82 117 -110 33 -11
70 -30 84 -40 42 -34 26 -90 -32 -114 -29 -12 -39 -12 -67 -1 -18 8 -41 22
-50 32 -16 16 -19 16 -42 1 -33 -21 -32 -30 8 -60 105 -80 263 -31 269 84 3
80 -22 112 -117 146 -84 30 -105 48 -105 85 0 62 88 92 143 49 31 -25 39 -25
62 0 14 15 15 23 6 34 -38 46 -149 60 -212 26z"/>
<path d="M9020 3853 c5 -15 34 -116 66 -223 31 -107 60 -200 65 -206 5 -6 22
-9 37 -6 27 4 31 10 56 95 15 51 39 130 53 177 l26 85 22 -80 c77 -284 78
-286 130 -277 17 3 26 23 50 105 16 56 30 107 31 112 2 9 52 173 68 223 7 20
4 22 -27 22 -34 0 -36 -2 -52 -57 -9 -32 -25 -85 -35 -118 -10 -33 -24 -84
-31 -112 -7 -29 -16 -53 -19 -53 -3 0 -28 77 -55 171 l-48 170 -36 -3 -36 -3
-51 -175 -52 -175 -11 40 c-6 22 -28 101 -49 175 l-39 135 -36 3 c-36 3 -36 3
-27 -25z"/>
<path d="M9782 3854 c-24 -43 27 -80 62 -45 15 15 16 22 7 40 -14 25 -56 28
-69 5z"/>
<path d="M7931 3615 c1 -174 3 -185 20 -185 11 0 19 7 19 17 0 14 2 14 21 -3
28 -25 109 -24 137 2 58 56 57 152 -3 197 -32 23 -97 25 -129 3 -30 -19 -28
-24 -27 82 1 65 -1 72 -19 72 -19 0 -20 -7 -19 -185z m179 -10 c34 -36 28
-115 -11 -136 -54 -28 -110 -10 -127 41 -33 93 72 166 138 95z"/>
<path d="M11849 3791 c-1 -6 -1 -20 -1 -31 0 -307 2 -341 20 -331 16 8 18 27
17 188 0 161 -2 178 -17 181 -10 2 -18 -1 -19 -7z"/>
<path d="M12430 3610 c0 -188 0 -191 20 -180 11 6 18 15 15 19 -2 5 12 0 32
-10 45 -23 63 -24 109 -4 90 37 80 190 -15 223 -33 11 -81 5 -102 -14 -23 -21
-26 -11 -24 79 1 68 -1 77 -17 77 -17 0 -18 -13 -18 -190z m178 -3 c30 -27 31
-98 2 -127 -11 -11 -23 -20 -27 -21 -66 -9 -106 13 -118 64 -11 41 19 95 57
105 39 10 55 6 86 -21z"/>
<path d="M11535 3781 c-117 -29 -173 -147 -123 -262 33 -77 135 -118 221 -90
45 15 75 47 59 63 -9 9 -16 8 -29 -3 -48 -40 -119 -45 -169 -12 -13 8 -32 33
-43 56 -35 72 -14 152 49 195 28 19 44 23 83 19 26 -2 56 -12 66 -21 14 -13
24 -15 36 -9 15 9 13 13 -15 36 -17 15 -42 27 -55 27 -13 0 -29 2 -37 4 -7 2
-26 1 -43 -3z"/>
<path d="M9785 3578 c-1 -84 3 -156 8 -159 4 -3 19 -4 32 -1 l24 4 0 154 0
154 -32 0 -32 0 0 -152z"/>
<path d="M8326 3578 c20 -46 43 -98 50 -115 12 -28 12 -38 -2 -73 -9 -22 -21
-41 -28 -42 -6 0 -18 -1 -26 -2 -22 -1 -18 -30 4 -34 10 -2 29 2 42 8 22 12
37 44 135 293 l19 48 -21 -3 c-17 -2 -28 -20 -51 -83 -16 -44 -33 -83 -37 -88
-4 -4 -23 32 -42 80 -28 70 -39 89 -57 91 -21 3 -21 1 14 -80z"/>
<path d="M12059 3653 c0 -5 -1 -44 -1 -89 -1 -83 10 -117 40 -133 23 -12 94
-5 103 11 6 10 11 8 22 -6 23 -32 32 -1 32 117 0 95 -2 107 -17 107 -16 0 -18
-10 -18 -76 0 -80 -9 -107 -40 -124 -47 -25 -94 20 -90 87 5 73 0 113 -15 113
-8 0 -15 -3 -16 -7z"/>
<path d="M6700 17678 c-69 -35 -79 -107 -29 -213 50 -106 113 -139 189 -100
65 34 72 122 18 228 -20 40 -73 96 -92 98 -6 0 -19 2 -28 4 -9 2 -35 -6 -58
-17z m75 -64 c8 -9 24 -32 34 -53 44 -86 44 -156 -1 -149 -46 6 -117 168 -89
202 17 20 35 20 56 0z"/>
<path d="M13208 17666 c-41 -27 -97 -135 -102 -196 -5 -58 14 -95 62 -118 44
-22 91 -16 126 17 66 62 106 220 67 267 -40 49 -106 62 -153 30z m92 -61 c16
-19 8 -59 -26 -130 -29 -63 -54 -81 -84 -65 -25 13 -20 50 14 125 36 79 69
103 96 70z"/>
<path d="M13577 17494 c-25 -6 -48 -9 -51 -6 -8 7 -8 -32 0 -51 4 -12 12 -13
37 -6 17 5 32 7 34 5 3 -2 -21 -54 -51 -114 l-56 -111 22 -16 c13 -8 29 -15
38 -14 9 0 42 56 87 150 l72 149 -22 15 c-25 16 -44 16 -110 -1z"/>
<path d="M6182 17433 c-14 -5 -72 -118 -72 -139 0 -7 10 -14 23 -18 23 -6 47
15 47 41 0 31 18 6 68 -92 29 -57 57 -107 61 -109 11 -7 61 17 61 29 0 6 -33
74 -72 152 -71 139 -81 150 -116 136z"/>
<path d="M13901 17349 c-36 -14 -67 -49 -101 -113 -54 -104 -35 -193 46 -215
66 -18 111 7 162 92 57 94 54 194 -5 225 -31 16 -77 21 -102 11z m77 -91 c6
-54 -69 -178 -108 -178 -42 0 -43 51 -3 122 46 85 104 114 111 56z"/>
<path d="M5856 17252 c-35 -21 -85 -140 -64 -154 27 -17 48 -8 55 22 3 17 8
30 12 30 3 0 35 -50 70 -110 l64 -109 29 16 c15 10 28 21 28 26 0 7 -147 270
-164 294 -1 1 -15 -5 -30 -15z"/>
<path d="M14305 17145 c-5 -2 -36 -6 -68 -10 -55 -6 -57 -8 -54 -33 4 -24 8
-27 41 -25 l37 3 -32 -58 c-17 -31 -37 -64 -44 -72 -6 -8 -21 -32 -33 -52
l-21 -37 30 -22 c17 -12 32 -20 33 -18 2 2 43 69 91 148 l88 144 -24 18 c-25
19 -27 20 -44 14z"/>
<path d="M5484 17026 c-26 -26 -34 -42 -34 -71 0 -78 90 -206 158 -225 39 -10
55 -6 99 27 57 42 51 119 -18 219 -62 91 -144 111 -205 50z m121 -67 c50 -56
79 -122 65 -149 -21 -38 -61 -17 -108 57 -38 59 -48 98 -32 118 20 24 35 18
75 -26z"/>
<path d="M14523 16950 c-53 -32 -115 -126 -127 -193 -2 -14 5 -43 16 -66 15
-32 28 -43 58 -52 53 -16 88 -4 136 45 102 107 112 225 24 271 -39 20 -69 19
-107 -5z m97 -70 c19 -35 -77 -180 -119 -180 -10 0 -25 7 -32 16 -11 14 -9 24
15 69 33 64 92 126 112 118 8 -3 19 -13 24 -23z"/>
<path d="M5213 16845 c-28 -20 -69 -145 -51 -157 27 -16 46 -8 53 22 4 17 10
30 14 30 4 0 39 -45 77 -100 38 -55 71 -100 74 -100 3 0 17 10 32 23 l27 22
-97 137 c-53 76 -99 138 -102 138 -3 0 -15 -7 -27 -15z"/>
<path d="M14863 16722 c-51 -3 -53 -4 -53 -33 0 -27 2 -29 39 -29 l40 0 -77
-101 -76 -102 30 -23 29 -24 25 32 c14 18 60 80 102 138 73 99 76 106 60 122
-20 20 -47 24 -119 20z"/>
<path d="M4881 16604 c-59 -50 -56 -118 11 -208 41 -55 102 -96 143 -96 44 0
104 54 109 97 4 38 -22 100 -64 153 -64 81 -142 102 -199 54z m108 -68 c30
-27 76 -95 83 -123 8 -29 -15 -47 -47 -39 -30 8 -115 118 -115 150 0 47 33 53
79 12z"/>
<path d="M15110 16464 c0 -31 2 -32 35 -30 19 2 35 1 35 -1 0 -4 -72 -94 -147
-184 -12 -15 -10 -20 18 -40 28 -19 33 -20 43 -7 6 8 27 35 48 59 111 134 148
183 148 194 0 21 -46 37 -114 39 l-66 3 0 -33z"/>
<path d="M4613 16383 c-18 -17 -53 -146 -42 -157 2 -2 15 -6 29 -8 22 -3 25 1
28 30 2 17 7 32 11 32 4 0 43 -42 86 -94 l79 -94 28 21 c15 11 28 24 28 28 0
4 -14 22 -31 40 -17 18 -36 40 -42 49 -7 10 -37 45 -67 80 -30 34 -59 69 -63
76 -11 18 -20 18 -44 -3z"/>
<path d="M15424 16270 c-42 -18 -113 -89 -138 -138 -34 -66 -9 -139 57 -167
58 -24 128 13 195 104 53 71 57 124 15 171 -39 43 -81 52 -129 30z m79 -67
c13 -16 14 -22 2 -48 -15 -34 -80 -107 -110 -123 -27 -14 -55 2 -55 32 0 32
55 103 107 138 34 22 36 22 56 1z"/>
<path d="M4333 16132 c-16 -12 -25 -36 -34 -85 -6 -37 -8 -71 -5 -75 4 -3 18
-8 31 -9 21 -3 25 1 26 24 1 15 1 31 0 36 -3 20 22 -1 98 -83 l83 -89 28 21
c22 16 27 25 20 37 -5 9 -58 67 -117 128 -107 111 -108 113 -130 95z"/>
<path d="M4074 15875 c-65 -28 -89 -94 -59 -159 25 -52 115 -131 164 -143 50
-13 95 6 127 54 17 26 20 40 14 67 -12 54 -59 112 -133 165 -31 22 -82 30
-113 16z m69 -77 c41 -27 104 -96 110 -119 3 -10 -3 -25 -13 -34 -16 -15 -21
-15 -47 -2 -40 22 -112 96 -119 124 -6 23 10 53 28 53 6 0 24 -10 41 -22z"/>
<path d="M15822 15840 c-103 -74 -149 -159 -118 -218 48 -92 132 -94 230 -3
85 79 101 158 42 217 -45 45 -95 47 -154 4z m118 -55 c18 -22 -1 -55 -68 -116
-56 -51 -81 -59 -102 -34 -16 19 -6 46 35 91 63 69 110 89 135 59z"/>
<path d="M16095 15572 c-3 -3 -5 -18 -5 -34 0 -26 3 -28 38 -28 l37 -1 -40
-37 c-22 -20 -66 -61 -98 -89 l-58 -53 25 -26 24 -27 34 28 c18 15 67 58 108
95 41 37 85 76 98 87 l23 18 -23 22 c-22 21 -152 56 -163 45z"/>
<path d="M3647 15423 c-20 -23 -29 -162 -10 -164 48 -5 48 -5 48 34 0 20 1 37
3 37 2 0 47 -37 98 -81 l95 -82 24 23 c14 13 25 26 25 30 0 9 -249 220 -259
220 -4 0 -15 -8 -24 -17z"/>
<path d="M16330 15290 c-76 -40 -151 -134 -144 -177 1 -7 2 -20 3 -29 2 -30
67 -84 100 -84 40 0 101 31 152 77 80 72 92 142 35 199 -40 40 -89 45 -146 14z
m109 -64 c18 -21 -3 -55 -64 -105 -57 -47 -88 -59 -110 -41 -25 21 -17 42 35
92 69 66 115 84 139 54z"/>
<path d="M3407 15121 c-12 -20 -16 -47 -14 -95 2 -65 3 -66 29 -66 24 0 27 4
30 40 l3 39 101 -78 102 -79 21 29 c11 15 21 30 21 33 0 2 -24 21 -52 42 -29
21 -55 41 -58 44 -11 13 -154 120 -160 120 -3 0 -13 -13 -23 -29z"/>
<path d="M16585 15003 c-88 -30 -175 -119 -175 -178 0 -36 31 -89 61 -105 56
-31 191 29 245 109 67 100 -17 213 -131 174z m88 -83 c7 -26 -28 -68 -90 -109
-53 -36 -88 -39 -103 -12 -8 16 -5 26 17 52 62 73 164 113 176 69z"/>
<path d="M3205 14838 c-111 -66 -73 -192 80 -264 67 -32 113 -31 148 2 77 72
46 162 -83 241 -44 27 -118 38 -145 21z m121 -97 c33 -22 65 -49 72 -61 17
-28 6 -60 -20 -60 -52 0 -168 85 -168 124 0 50 39 48 116 -3z"/>
<path d="M16794 14697 c-169 -66 -226 -207 -111 -277 34 -21 89 -12 152 25 89
52 131 117 115 177 -19 68 -88 102 -156 75z m86 -72 c17 -21 4 -50 -38 -83
-78 -61 -133 -77 -151 -44 -14 27 9 56 82 103 65 42 88 47 107 24z"/>
<path d="M3002 14530 c-52 -22 -82 -92 -62 -145 15 -39 65 -82 136 -116 82
-40 138 -31 174 25 37 61 21 121 -47 173 -74 57 -155 82 -201 63z m92 -84 c73
-41 83 -49 100 -77 15 -25 15 -29 0 -43 -19 -20 -27 -20 -72 1 -61 27 -122 82
-122 108 0 40 34 45 94 11z"/>
<path d="M16954 14362 c-123 -65 -162 -136 -118 -211 35 -59 99 -69 182 -27
96 49 141 102 137 162 -5 96 -98 131 -201 76z m134 -74 c3 -22 -5 -33 -45 -62
-81 -59 -147 -70 -161 -27 -5 16 57 73 110 100 57 29 92 25 96 -11z"/>
<path d="M2804 14206 c-68 -31 -86 -126 -33 -182 35 -37 120 -83 172 -93 58
-10 101 13 123 66 23 54 11 95 -39 138 -77 67 -168 96 -223 71z m115 -89 c24
-12 57 -35 73 -50 23 -23 26 -32 18 -48 -14 -26 -51 -24 -108 6 -82 42 -115
82 -92 110 14 17 53 11 109 -18z"/>
<path d="M17192 14047 c-24 -32 -21 -46 14 -57 20 -7 32 -15 29 -18 -4 -4 -44
-27 -89 -52 -46 -25 -93 -52 -106 -61 -23 -15 -23 -16 -5 -46 l18 -30 66 36
c37 20 104 56 149 80 45 25 82 50 82 57 0 37 -138 116 -158 91z"/>
<path d="M2590 13851 c-6 -16 -9 -38 -6 -48 2 -10 7 -36 11 -58 7 -46 16 -58
41 -53 15 3 19 12 17 41 -1 20 0 37 3 37 3 0 53 -25 111 -56 111 -60 122 -60
137 -9 5 18 -13 30 -144 98 -82 42 -151 77 -153 77 -3 0 -10 -13 -17 -29z"/>
<path d="M17360 13710 c-16 -30 -12 -37 26 -52 l35 -14 -115 -55 c-119 -56
-127 -64 -103 -107 l13 -22 157 77 157 78 -17 28 c-11 16 -44 40 -80 57 -60
28 -63 28 -73 10z"/>
<path d="M2422 13511 c-14 -39 15 -161 37 -161 34 0 43 15 33 53 l-10 35 97
-44 c53 -24 104 -49 113 -54 10 -6 20 -10 23 -10 6 0 37 61 33 65 -8 9 -304
145 -313 145 -2 0 -8 -13 -13 -29z"/>
<path d="M2300 13188 c-65 -45 -69 -135 -7 -182 84 -65 203 -88 254 -50 56 42
62 131 11 175 -36 31 -119 67 -174 74 -42 5 -55 2 -84 -17z m159 -86 c63 -31
81 -53 65 -79 -15 -24 -63 -19 -133 13 -78 35 -103 75 -58 94 28 12 59 5 126
-28z"/>
<path d="M17550 13167 c-95 -38 -140 -81 -140 -136 0 -36 32 -90 63 -104 70
-34 233 25 273 99 21 39 13 93 -20 131 -31 36 -99 40 -176 10z m133 -62 c9 -8
13 -24 10 -35 -5 -21 -79 -60 -146 -78 -33 -9 -41 -8 -58 9 -27 27 -12 50 48
79 89 42 124 48 146 25z"/>
<path d="M17742 12810 c-16 -27 -16 -27 19 -45 17 -9 29 -18 27 -20 -2 -3 -55
-22 -117 -44 -62 -21 -114 -41 -117 -43 -6 -7 16 -68 25 -68 7 0 198 66 278
96 39 15 41 17 31 44 -5 17 -31 42 -63 64 -64 42 -66 42 -83 16z"/>
<path d="M2066 12604 c-10 -26 -7 -44 15 -105 22 -59 37 -70 67 -50 11 7 11
14 -1 44 l-15 35 26 -8 c15 -5 70 -22 122 -39 52 -17 98 -27 103 -22 4 4 9 21
10 36 2 28 0 29 -148 77 -82 26 -155 48 -161 48 -7 0 -15 -7 -18 -16z"/>
<path d="M17860 12482 c-49 -6 -125 -35 -157 -58 -45 -34 -58 -80 -37 -133 22
-56 60 -75 134 -68 101 9 193 66 205 127 6 29 -13 85 -34 104 -22 20 -74 33
-111 28z m78 -104 c3 -23 -3 -30 -35 -46 -62 -32 -150 -47 -170 -30 -17 14
-16 43 1 57 27 22 121 51 161 48 35 -2 40 -5 43 -29z"/>
<path d="M2014 12283 c-58 -11 -95 -115 -60 -168 27 -40 109 -76 191 -82 69
-5 73 -4 105 24 27 24 33 38 37 79 4 53 -3 67 -52 100 -53 37 -159 60 -221 47z
m140 -90 c117 -41 91 -111 -31 -84 -102 23 -143 59 -107 95 18 19 65 15 138
-11z"/>
<path d="M17888 12105 c-108 -30 -153 -87 -129 -166 21 -69 88 -91 191 -65
113 29 154 67 152 138 -4 95 -83 129 -214 93z m140 -64 c21 -2 14 -49 -11 -65
-23 -15 -130 -42 -157 -40 -8 1 -20 2 -26 3 -17 2 -24 38 -10 56 6 9 38 24 71
34 52 17 77 19 133 12z"/>
<path d="M1922 11918 c-65 -17 -94 -117 -50 -173 36 -46 106 -69 206 -69 54 0
66 4 89 26 36 37 43 112 14 150 -40 50 -182 87 -259 66z m98 -73 c55 -8 114
-36 118 -57 6 -29 -27 -50 -68 -44 -110 15 -170 46 -156 81 5 15 45 36 56 30
3 -2 26 -6 50 -10z"/>
<path d="M18048 11728 c-14 -22 -14 -24 15 -45 32 -24 30 -27 -33 -37 -34 -5
-46 -7 -100 -20 -14 -3 -38 -8 -54 -10 -37 -6 -37 -7 -30 -44 4 -19 13 -32 21
-32 19 0 317 60 321 65 14 14 -16 66 -58 100 -61 50 -64 51 -82 23z"/>
<path d="M1838 11544 c-36 -15 -53 -41 -62 -95 -11 -65 56 -122 159 -134 27
-4 51 -8 53 -9 9 -9 90 18 109 36 40 37 43 113 6 154 -44 49 -197 77 -265 48z
m142 -69 c19 -3 45 -12 58 -21 61 -40 29 -79 -58 -70 -99 10 -140 30 -140 68
0 33 37 39 140 23z"/>
<path d="M18027 11379 c-86 -20 -126 -58 -129 -123 -1 -41 24 -84 63 -103 59
-31 210 -3 261 47 40 40 40 106 0 152 -26 28 -35 32 -93 33 -35 2 -81 -1 -102
-6z m140 -68 c18 -2 26 -40 13 -56 -24 -28 -153 -51 -196 -35 -28 11 -32 41
-8 61 27 22 124 38 191 30z"/>
<path d="M1783 11176 c-40 -18 -63 -53 -65 -97 -2 -69 43 -111 137 -128 146
-26 215 12 215 118 0 69 -64 110 -185 117 -47 3 -80 0 -102 -10z m157 -72 c94
-16 91 -88 -4 -86 -115 3 -176 35 -148 78 13 22 61 24 152 8z"/>
<path d="M18060 11007 c-81 -21 -122 -69 -113 -130 11 -77 67 -110 177 -102
80 6 128 26 156 65 34 48 18 134 -30 160 -31 17 -140 21 -190 7z m165 -77 c31
-25 -1 -67 -58 -75 -113 -17 -157 -8 -157 31 0 29 24 43 98 52 69 9 98 7 117
-8z"/>
<path d="M1688 10748 c-2 -25 6 -47 35 -90 21 -32 41 -58 45 -58 5 0 17 6 28
14 19 14 19 15 -5 46 l-23 32 88 -6 c49 -4 108 -9 132 -12 l43 -6 -3 39 -3 38
-60 6 c-33 4 -105 10 -160 14 -54 3 -103 8 -107 11 -3 2 -8 -10 -10 -28z"/>
<path d="M18095 10638 c-60 -12 -85 -29 -105 -68 -14 -30 -16 -42 -6 -80 9
-39 17 -48 54 -67 35 -17 56 -21 114 -18 108 6 147 26 172 87 12 28 12 39 0
73 -7 22 -14 41 -14 42 0 1 -14 10 -31 19 -37 18 -126 25 -184 12z m164 -82
c20 -13 12 -45 -16 -59 -35 -18 -155 -22 -182 -7 -23 12 -28 42 -8 58 30 25
169 30 206 8z"/>
<path d="M1671 10387 c-21 -21 -11 -58 30 -112 35 -46 44 -53 59 -45 31 16 31
27 6 57 l-25 30 77 -4 c42 -1 100 -5 129 -7 55 -4 63 2 63 50 0 21 -4 24 -42
25 -110 2 -264 10 -274 13 -6 3 -17 -1 -23 -7z"/>
<path d="M1764 10068 c-73 -13 -109 -52 -109 -118 0 -37 6 -54 23 -73 65 -69
293 -52 317 23 23 73 6 128 -46 152 -43 20 -119 27 -185 16z m170 -87 c17 -14
10 -48 -14 -61 -21 -11 -135 -15 -172 -5 -47 12 -47 56 0 74 34 14 167 8 186
-8z"/>
<path d="M18092 10045 c-56 -14 -92 -51 -96 -101 -8 -84 44 -126 162 -130 113
-4 175 26 188 92 10 56 -12 103 -60 124 -50 23 -137 29 -194 15z m160 -77 c47
-17 47 -61 0 -74 -65 -18 -168 -5 -189 23 -16 21 0 50 29 55 44 8 133 5 160
-4z"/>
<path d="M18217 9646 c-17 -13 -16 -15 8 -45 l26 -31 -108 6 c-59 3 -113 7
-119 9 -18 6 -31 -8 -39 -42 -7 -36 -16 -33 90 -38 28 -2 96 -6 153 -9 l102
-6 0 31 c0 33 -64 139 -83 139 -7 0 -20 -7 -30 -14z"/>
<path d="M1830 9483 c-61 -10 -99 -25 -123 -48 -30 -31 -38 -64 -25 -115 14
-53 72 -83 155 -79 129 5 193 47 193 124 0 41 -27 89 -57 102 -32 13 -106 21
-143 16z m130 -93 c28 -44 -21 -72 -126 -73 -81 0 -98 8 -92 44 4 32 53 48
141 46 48 -2 71 -6 77 -17z"/>
<path d="M18198 9279 c-22 -12 -23 -32 -3 -49 18 -15 20 -41 3 -35 -7 2 -38 6
-68 10 -119 13 -170 15 -171 8 0 -4 -3 -20 -5 -35 -3 -16 -1 -28 3 -29 4 0 17
-2 28 -4 11 -2 50 -6 86 -9 36 -3 90 -9 120 -12 102 -13 104 -12 107 23 2 23
-7 46 -34 87 -40 60 -40 61 -66 45z"/>
<path d="M1845 9110 c-38 -8 -101 -38 -113 -53 -6 -7 -13 -30 -16 -52 -9 -57
19 -106 70 -123 74 -26 222 3 262 50 33 40 18 135 -26 164 -29 19 -124 27
-177 14z m156 -98 c7 -17 4 -25 -14 -36 -24 -16 -120 -36 -146 -31 -9 2 -24 4
-33 4 -10 1 -22 9 -27 20 -18 32 9 53 85 66 85 14 124 7 135 -23z"/>
<path d="M17988 8940 c-46 -14 -70 -45 -76 -98 -4 -41 0 -52 23 -80 51 -61
210 -84 276 -39 62 41 69 126 14 174 -43 37 -173 61 -237 43z m122 -74 c56
-10 90 -31 90 -55 0 -28 -20 -38 -70 -36 -114 4 -178 35 -154 73 18 27 51 32
134 18z"/>
<path d="M1867 8729 c-68 -23 -97 -57 -97 -114 0 -35 6 -52 29 -77 29 -32 32
-33 108 -33 93 1 142 16 183 57 35 35 41 92 13 139 -31 52 -131 64 -236 28z
m182 -64 c15 -9 14 -40 -1 -52 -34 -27 -155 -47 -193 -33 -28 11 -33 41 -10
60 35 29 171 46 204 25z"/>
<path d="M17920 8573 c-8 -3 -27 -17 -42 -31 -23 -21 -28 -34 -28 -73 0 -89
72 -134 212 -134 71 0 80 2 105 28 24 23 28 36 28 83 0 50 -3 58 -29 79 -54
43 -188 69 -246 48z m152 -84 c13 -7 24 -10 25 -8 5 9 43 -32 43 -46 0 -33
-68 -41 -157 -19 -64 16 -95 61 -56 82 22 13 116 6 145 -9z"/>
<path d="M2015 8324 c-82 -19 -158 -34 -167 -34 -14 0 -15 -5 -7 -32 8 -31 22
-46 92 -105 l27 -23 17 26 c16 25 16 26 -13 49 -34 27 -37 26 91 51 134 26
136 27 125 65 -5 17 -11 33 -12 34 -2 1 -70 -13 -153 -31z"/>
<path d="M17859 8217 c-72 -17 -109 -98 -76 -164 37 -71 222 -113 294 -66 46
31 59 122 23 161 -47 50 -172 86 -241 69z m128 -87 c54 -17 81 -45 66 -68 -15
-24 -117 -22 -168 4 -52 26 -66 50 -40 70 22 17 74 15 142 -6z"/>
<path d="M2064 8015 c-96 -30 -134 -67 -134 -129 0 -106 79 -140 222 -96 74
23 116 61 124 111 6 42 -21 99 -56 116 -31 16 -103 15 -156 -2z m139 -70 c9
-8 13 -23 10 -34 -11 -42 -186 -89 -212 -57 -30 35 2 65 99 92 61 17 86 17
103 -1z"/>
<path d="M17743 7855 c-53 -23 -87 -101 -62 -147 42 -80 222 -131 294 -84 46
30 63 92 39 141 -31 67 -196 121 -271 90z m117 -77 c71 -21 100 -39 100 -64 0
-12 -5 -26 -12 -30 -38 -24 -187 20 -206 60 -8 18 -8 27 1 34 27 21 44 21 117
0z"/>
<path d="M2211 7669 c-56 -11 -122 -43 -150 -73 -45 -48 -30 -143 29 -174 55
-29 209 9 260 63 34 36 40 83 18 127 -28 56 -73 73 -157 57z m104 -90 c10 -31
-20 -57 -94 -79 -68 -21 -115 -19 -125 5 -14 37 89 94 171 95 34 0 43 -4 48
-21z"/>
<path d="M17825 7448 c-11 -6 -21 -12 -23 -13 -2 -2 3 -18 11 -38 l15 -34
-123 42 -123 43 -13 -30 c-7 -18 -8 -33 -2 -39 10 -10 290 -109 310 -109 24 0
25 58 2 120 -12 33 -25 62 -28 64 -4 3 -15 0 -26 -6z"/>
<path d="M2370 7273 c-52 -19 -123 -44 -158 -56 -62 -21 -63 -22 -58 -51 4
-16 7 -30 9 -31 1 -1 29 -19 61 -40 56 -35 61 -36 73 -19 20 27 16 40 -19 57
-23 11 -28 17 -18 21 135 45 230 83 229 91 0 6 -5 22 -12 37 l-12 26 -95 -35z"/>
<path d="M2470 6975 c-141 -37 -210 -121 -167 -204 33 -66 104 -79 200 -39
110 46 147 96 126 171 -19 68 -75 94 -159 72z m95 -99 c0 -25 -7 -33 -58 -59
-72 -36 -128 -45 -146 -24 -21 26 4 55 72 88 40 19 74 29 97 27 31 -3 35 -6
35 -32z"/>
<path d="M17442 6959 c-43 -9 -70 -34 -81 -76 -19 -68 7 -111 95 -154 149 -74
258 -32 241 93 -6 46 -33 73 -104 107 -57 28 -111 39 -151 30z m130 -105 c54
-28 76 -57 57 -80 -15 -18 -43 -18 -99 3 -91 33 -136 87 -93 111 20 12 70 -1
135 -34z"/>
<path d="M17208 6538 l-15 -33 149 -72 c82 -40 154 -73 159 -73 23 0 30 54 15
118 -8 35 -16 66 -19 68 -3 3 -16 2 -30 -1 -23 -6 -24 -9 -16 -43 4 -20 7 -37
6 -38 -1 -1 -51 23 -112 52 -60 29 -113 54 -116 54 -3 0 -12 -15 -21 -32z"/>
<path d="M2680 6364 c-80 -42 -146 -77 -148 -79 -1 -1 2 -14 9 -28 8 -17 33
-35 78 -55 l66 -30 12 22 c18 30 17 32 -23 48 l-36 15 113 57 c63 32 115 59
117 61 6 5 -28 65 -36 65 -4 -1 -72 -35 -152 -76z"/>
<path d="M17042 6218 c-6 -18 -8 -35 -4 -39 8 -8 41 -26 194 -108 l97 -52 16
31 c9 17 14 39 11 48 -3 9 -8 35 -12 57 -8 52 -10 55 -44 55 -27 0 -28 -1 -19
-37 4 -21 6 -39 5 -41 -2 -1 -23 8 -47 21 -114 62 -179 97 -181 97 -2 0 -9
-14 -16 -32z"/>
<path d="M2925 6074 c-44 -25 -109 -62 -145 -81 -36 -20 -66 -37 -68 -38 -1
-1 2 -14 9 -28 12 -25 25 -35 93 -62 51 -20 63 -19 69 7 7 23 -8 37 -48 48
-15 4 8 21 93 68 61 35 112 65 112 68 0 6 -30 64 -33 64 -1 0 -38 -21 -82 -46z"/>
<path d="M16921 5968 c-31 -17 -59 -56 -65 -92 -10 -54 41 -115 131 -161 82
-40 147 -36 182 13 44 63 28 133 -43 181 -91 63 -160 82 -205 59z m104 -84
c92 -48 129 -101 88 -122 -26 -13 -66 1 -140 50 -50 33 -64 65 -37 85 25 18
32 17 89 -13z"/>
<path d="M3061 5790 c-88 -40 -151 -107 -151 -160 0 -35 28 -85 58 -102 55
-31 145 -2 228 74 53 49 64 89 39 142 -33 69 -90 84 -174 46z m117 -81 c4 -31
-33 -66 -109 -105 -27 -13 -51 -25 -53 -27 -2 -1 -13 6 -25 17 -18 17 -19 21
-7 45 18 34 133 103 166 99 19 -2 26 -10 28 -29z"/>
<path d="M16728 5659 c-35 -13 -68 -67 -68 -111 0 -48 54 -109 132 -147 72
-36 115 -39 152 -10 73 57 69 129 -9 198 -70 61 -154 90 -207 70z m123 -103
c61 -41 83 -69 74 -96 -12 -38 -77 -19 -156 45 -40 33 -48 48 -38 74 8 20 14
22 39 17 17 -3 53 -21 81 -40z"/>
<path d="M3272 5485 c-53 -23 -124 -87 -142 -128 -22 -48 -15 -80 25 -123 40
-42 80 -45 151 -9 135 68 180 163 113 240 -26 30 -37 35 -73 35 -22 -1 -56 -7
-74 -15z m108 -70 c16 -20 -6 -55 -60 -94 -57 -41 -99 -57 -119 -44 -35 22
-14 63 61 113 64 42 98 50 118 25z"/>
<path d="M16492 5335 c-34 -28 -47 -70 -37 -115 14 -65 145 -159 222 -160 52
0 114 68 107 118 -1 6 -2 18 -3 26 -2 25 -54 78 -115 118 -74 48 -128 52 -174
13z m164 -97 c50 -36 70 -73 52 -95 -8 -10 -22 -13 -40 -9 -41 8 -116 62 -139
99 -19 32 -19 32 2 49 19 16 23 16 52 1 18 -8 51 -29 73 -45z"/>
<path d="M3512 5195 c-49 -15 -126 -74 -153 -119 -31 -50 -25 -102 15 -142 57
-57 128 -43 228 46 77 67 86 141 25 198 -29 27 -63 32 -115 17z m81 -77 c16
-24 -4 -55 -63 -101 -62 -48 -104 -57 -120 -27 -12 23 -7 35 35 74 34 32 109
77 124 74 8 -2 19 -11 24 -20z"/>
<path d="M16236 5004 c-10 -14 -14 -29 -10 -34 7 -7 155 -126 214 -173 9 -7
23 -18 32 -25 28 -22 51 26 53 108 2 68 2 68 -26 72 -28 4 -29 3 -29 -34 0
-21 -3 -38 -6 -38 -4 0 -80 56 -94 70 -21 21 -100 80 -107 80 -4 0 -16 -12
-27 -26z"/>
<path d="M3717 4897 c-59 -35 -126 -107 -138 -147 -20 -65 24 -131 93 -144 65
-11 209 103 223 178 19 100 -88 167 -178 113z m97 -53 c45 -17 -2 -91 -94
-149 -32 -20 -44 -23 -60 -15 -11 6 -20 18 -20 27 0 26 45 78 96 112 51 33 54
34 78 25z"/>
<path d="M16002 4726 l-21 -25 72 -64 c40 -36 99 -87 131 -115 l60 -50 19 24
c27 35 34 160 9 166 -30 8 -42 -3 -42 -38 0 -30 -13 -46 -22 -26 -5 12 -168
152 -177 152 -4 0 -17 -11 -29 -24z"/>
<path d="M4000 4588 c-30 -29 -85 -80 -121 -115 l-67 -63 25 -26 c13 -14 26
-24 29 -22 2 3 32 0 67 -7 l63 -12 2 28 c2 24 -3 30 -25 35 -37 9 -47 15 -35
23 25 16 172 155 172 162 0 11 -37 49 -47 49 -5 0 -33 -24 -63 -52z"/>
<path d="M4250 4372 c-22 -7 -91 -63 -120 -96 -59 -69 -65 -130 -17 -181 40
-44 80 -51 136 -23 52 26 128 109 142 157 25 83 -60 170 -141 143z m61 -72
c31 -17 22 -47 -28 -101 -70 -75 -121 -95 -137 -54 -7 20 50 100 97 135 47 34
42 33 68 20z"/>
<path d="M15651 4347 c-37 -19 -65 -63 -64 -101 2 -79 130 -206 206 -206 56 0
117 60 117 114 0 49 -90 160 -155 190 -40 19 -72 20 -104 3z m72 -68 c53 -27
122 -118 112 -149 -14 -43 -72 -17 -147 65 -35 38 -39 95 -7 95 11 0 30 -5 42
-11z"/>
<path d="M15340 4055 c-26 -28 -28 -25 51 -110 25 -27 68 -76 95 -107 27 -31
54 -57 60 -57 15 -1 47 36 51 57 17 115 16 119 -11 124 -27 5 -29 2 -38 -56
-2 -14 -24 5 -88 77 -47 53 -88 97 -91 97 -3 0 -16 -11 -29 -25z"/>
<path d="M4643 3951 c-50 -36 -92 -86 -114 -137 -26 -58 -14 -103 37 -143 51
-40 120 -20 187 53 77 86 92 165 40 217 -42 43 -100 46 -150 10z m107 -56 c11
-13 10 -22 -2 -48 -22 -44 -76 -106 -109 -122 -24 -13 -28 -12 -45 6 -17 19
-17 21 0 52 22 41 42 65 84 100 38 31 54 34 72 12z"/>
<path d="M15066 3819 c-16 -13 -23 -25 -19 -33 8 -14 42 -55 147 -180 33 -39
61 -73 63 -75 12 -15 50 49 64 105 l16 66 -25 9 c-30 12 -41 3 -44 -34 -1 -15
-5 -27 -8 -27 -4 0 -34 35 -68 78 -90 115 -93 117 -126 91z"/>
<path d="M4993 3723 c-103 -128 -183 -234 -183 -242 0 -25 46 -40 115 -38 67
2 70 3 70 27 0 21 -5 26 -38 30 l-39 5 79 100 79 100 -27 23 c-15 12 -29 22
-31 22 -2 0 -13 -12 -25 -27z"/>
<path d="M14809 3623 c-32 -20 -59 -63 -59 -95 1 -59 83 -174 149 -207 78 -39
172 30 157 114 -9 46 -29 83 -72 134 -58 67 -122 87 -175 54z m131 -122 c50
-66 60 -99 35 -117 -28 -20 -67 6 -114 77 -45 68 -49 86 -24 104 25 19 55 0
103 -64z"/>
<path d="M5289 3508 c-7 -13 -15 -25 -18 -28 -12 -9 -151 -209 -157 -225 -7
-17 45 -44 80 -40 11 1 40 3 64 4 41 1 42 2 40 32 -2 27 -6 30 -33 29 -16 -1
-33 -2 -37 -1 -4 1 13 29 37 64 25 34 59 81 75 103 l30 42 -23 14 c-12 8 -27
18 -34 22 -7 4 -17 -3 -24 -16z"/>
<path d="M14482 3384 c-12 -8 -22 -19 -22 -25 0 -8 158 -246 181 -272 16 -20
57 25 74 81 10 31 20 62 22 68 2 7 -9 16 -26 22 -29 10 -31 10 -37 -24 -3 -19
-10 -34 -14 -34 -4 0 -37 45 -74 100 -36 55 -70 100 -74 100 -4 0 -18 -7 -30
-16z"/>
<path d="M5572 3313 c-32 -6 -98 -77 -128 -135 -40 -78 -34 -142 15 -177 77
-55 163 -11 226 113 44 87 30 152 -40 186 -23 11 -43 19 -46 19 -2 -1 -14 -4
-27 -6z m52 -69 c33 -13 13 -81 -46 -156 -35 -45 -66 -57 -84 -33 -9 12 -10
24 -2 48 15 42 63 112 90 132 26 17 22 17 42 9z"/>
<path d="M14205 3208 c-21 -12 -54 -46 -56 -57 0 -3 -2 -16 -5 -28 -6 -34 32
-124 72 -172 45 -52 84 -73 124 -66 127 22 129 166 5 291 -37 37 -51 44 -82
44 -21 0 -47 -6 -58 -12z m98 -92 c68 -89 83 -166 33 -166 -29 0 -70 46 -102
114 -41 88 11 128 69 52z"/>
<path d="M5865 3047 c-26 -45 -65 -111 -87 -146 l-40 -65 24 -18 c17 -14 34
-17 68 -12 97 12 101 14 98 42 -3 25 -6 27 -41 24 l-38 -3 27 48 c16 26 45 76
65 110 l38 61 -22 14 c-12 8 -27 17 -33 21 -6 3 -31 -28 -59 -76z"/>
<path d="M13859 3002 l-26 -17 81 -147 c45 -81 86 -147 92 -148 24 0 55 37 79
95 l24 60 -27 11 c-25 11 -27 10 -42 -24 l-16 -35 -60 108 c-32 60 -64 110
-69 111 -6 1 -22 -5 -36 -14z"/>
<path d="M6157 2908 c-47 -45 -87 -129 -92 -191 -4 -47 -1 -53 31 -84 46 -43
107 -46 152 -9 36 31 89 130 98 183 12 74 -41 133 -120 133 -25 0 -44 -9 -69
-32z m104 -39 c25 -13 21 -47 -15 -114 -33 -65 -46 -81 -73 -89 -25 -8 -45 18
-38 51 9 47 81 163 101 163 3 0 14 -5 25 -11z"/>
<path d="M13538 2834 c-16 -8 -28 -17 -28 -19 0 -3 34 -73 75 -156 l76 -150
30 18 c19 11 40 40 58 79 l29 62 -25 11 c-30 14 -28 15 -46 -28 l-14 -33 -59
116 c-32 64 -60 116 -63 116 -4 -1 -18 -8 -33 -16z"/>
<path d="M6511 2698 c-21 -46 -52 -113 -70 -150 -17 -37 -31 -69 -31 -71 0 -3
13 -10 28 -16 21 -9 40 -9 73 -1 24 6 52 13 63 15 26 6 28 9 20 39 -5 21 -11
25 -28 21 -58 -17 -56 -19 -29 37 49 101 84 180 81 183 -10 8 -48 25 -58 25
-6 0 -28 -37 -49 -82z"/>
<path d="M6843 2609 c-39 -25 -90 -124 -99 -190 -17 -127 126 -190 204 -89 36
46 64 123 64 178 1 46 -3 57 -28 82 -40 40 -98 48 -141 19z m101 -68 c10 -16
-33 -139 -59 -170 -23 -27 -45 -34 -60 -19 -25 24 8 142 53 190 19 21 29 25
43 18 10 -6 20 -14 23 -19z"/>
<path d="M13023 2604 c-65 -32 -72 -120 -17 -231 31 -64 73 -97 125 -97 84 0
126 68 102 163 -38 148 -118 210 -210 165z m76 -58 c23 -15 72 -135 69 -170
-3 -27 -7 -31 -33 -31 -26 0 -33 7 -57 55 -55 108 -44 186 21 146z"/>
<path d="M12675 2467 c-16 -5 -31 -11 -33 -12 -1 -1 16 -53 39 -116 22 -63 48
-134 56 -159 9 -25 17 -46 18 -48 1 -1 15 3 31 8 19 7 41 30 66 70 l37 60 -22
15 c-29 21 -33 19 -47 -15 -7 -16 -15 -30 -19 -30 -3 0 -23 51 -45 113 -21 61
-41 115 -45 118 -3 4 -19 2 -36 -4z"/>
<path d="M7420 2421 c-38 -15 -61 -41 -85 -94 -66 -143 -31 -249 83 -251 38
-1 48 4 77 36 55 59 86 196 59 250 -23 45 -94 76 -134 59z m68 -78 c12 -24 5
-66 -21 -132 -25 -62 -48 -82 -74 -65 -24 15 -24 57 0 124 23 64 43 90 68 90
10 0 22 -8 27 -17z"/>
<path d="M12313 2353 c-19 -7 -18 -14 34 -181 l47 -154 30 6 c16 4 30 7 31 9
1 1 18 25 38 53 42 59 43 62 20 80 -25 19 -29 18 -51 -17 l-20 -32 -10 34 c-6
19 -23 73 -37 122 -23 76 -29 87 -48 86 -12 0 -28 -3 -34 -6z"/>
<path d="M7760 2309 c-68 -25 -123 -197 -90 -283 5 -14 27 -34 48 -45 73 -37
134 -8 170 82 42 105 35 202 -18 235 -28 17 -80 22 -110 11z m86 -113 c-12
-96 -46 -166 -81 -166 -18 0 -26 7 -31 24 -12 51 23 165 59 191 18 13 23 13
39 -2 12 -11 17 -26 14 -47z"/>
<path d="M11964 2252 c-21 -7 -21 -8 17 -157 48 -188 46 -184 84 -174 20 6 42
27 69 65 37 54 38 58 21 70 -26 19 -31 18 -53 -11 -11 -14 -22 -22 -25 -18 -2
4 -17 59 -32 121 -29 117 -30 119 -81 104z"/>
<path d="M8112 2173 c-8 -32 -25 -104 -38 -159 -13 -56 -24 -106 -24 -112 0
-5 14 -12 30 -16 23 -4 47 3 94 26 60 29 63 33 53 55 -12 27 -18 28 -58 7 -29
-15 -30 -14 -25 3 3 10 14 59 25 109 11 50 23 98 26 106 7 18 1 23 -40 32 -30
6 -30 6 -43 -51z"/>
<path d="M11618 2174 c-57 -24 -74 -88 -51 -187 18 -78 38 -114 76 -137 32
-20 81 -19 119 1 47 25 61 117 32 216 -30 102 -95 142 -176 107z m99 -110 c22
-61 22 -144 1 -158 -39 -24 -74 33 -85 140 -4 39 -2 54 12 68 15 15 20 15 38
3 11 -7 27 -31 34 -53z"/>
<path d="M8474 2139 c-54 -19 -100 -160 -84 -251 8 -41 45 -87 73 -89 7 -1 25
-2 40 -3 44 -4 89 32 110 89 24 61 28 172 8 208 -24 44 -94 66 -147 46z m87
-84 c1 -8 2 -21 2 -27 2 -31 -14 -111 -28 -138 -17 -33 -58 -42 -69 -14 -18
47 9 176 41 201 19 14 52 1 54 -22z"/>
<path d="M11255 2107 c-42 -20 -60 -58 -59 -130 1 -79 31 -164 67 -191 50 -37
139 -18 168 36 29 53 6 204 -39 257 -32 38 -89 49 -137 28z m77 -64 c21 -23
41 -117 36 -168 -3 -35 -6 -40 -30 -43 -37 -4 -59 41 -66 132 -4 59 -2 71 13
83 24 17 29 17 47 -4z"/>
<path d="M8840 2083 c-66 -28 -107 -194 -70 -284 16 -37 52 -60 99 -62 84 -3
127 65 133 213 4 80 -34 130 -102 136 -25 2 -52 1 -60 -3z m75 -70 c14 -14 16
-29 12 -84 -6 -76 -29 -129 -56 -129 -35 0 -44 26 -38 100 9 109 42 154 82
113z"/>
<path d="M10902 2062 l-33 -3 6 -64 c3 -35 7 -72 9 -82 2 -10 7 -52 12 -93 4
-41 9 -78 10 -82 1 -5 2 -12 3 -17 0 -5 9 -8 19 -6 9 2 22 4 28 4 7 1 35 24
64 53 l51 51 -20 21 -21 20 -30 -29 -30 -29 -1 25 c0 13 -2 32 -4 42 -2 9 -6
50 -10 89 -10 97 -13 104 -53 100z"/>
<path d="M9205 2041 c-50 -21 -79 -91 -78 -191 0 -36 6 -77 12 -92 27 -68 132
-86 182 -30 57 64 65 237 13 289 -29 29 -89 40 -129 24z m78 -71 c26 -37 7
-182 -26 -205 -19 -13 -23 -13 -39 2 -33 29 -17 191 20 212 24 15 29 14 45 -9z"/>
<path d="M10515 1903 c4 -71 8 -137 10 -148 1 -11 3 -32 4 -48 1 -24 5 -27 31
-25 40 3 136 88 127 112 -11 29 -36 30 -62 2 -14 -15 -25 -26 -25 -24 -1 2 -3
39 -6 83 -3 44 -7 91 -9 105 -2 14 -4 35 -4 48 -1 19 -7 22 -37 22 l-36 0 7
-127z"/>
<path d="M9560 1983 c-1 -21 -3 -100 -7 -175 l-5 -137 34 3 c31 3 138 69 138
86 0 3 -6 15 -14 26 -14 19 -15 19 -45 -4 -34 -25 -42 -27 -36 -9 2 6 6 65 9
130 l4 117 -39 0 c-38 0 -39 -1 -39 -37z"/>
<path d="M9963 2010 c-73 -17 -93 -57 -94 -182 -1 -113 39 -168 122 -168 42 0
86 30 100 69 17 43 22 143 10 188 -11 40 -51 93 -71 93 -4 0 -14 2 -22 4 -7 2
-28 0 -45 -4z m58 -82 c17 -32 13 -155 -6 -184 -33 -51 -70 -15 -74 70 -1 31
3 73 9 96 9 33 15 40 35 40 15 0 29 -9 36 -22z"/>
</g>
</svg>
